<svg xmlns="http://www.w3.org/2000/svg" width="209" height="58" viewBox="0 0 209 58">
  <defs>
    <radialGradient id="logo-a" cx="49.643%" cy="49.754%" r="103.5%" fx="49.643%" fy="49.754%" gradientTransform="scale(1 .50146) rotate(66.395 .118 .745)">
      <stop offset="30%" stop-color="#5F6831"/>
      <stop offset="100%" stop-color="#3D431C"/>
    </radialGradient>
    <radialGradient id="logo-b" cx="69.375%" cy="42.648%" r="31.26%" fx="69.375%" fy="42.648%" gradientTransform="matrix(1 0 0 .85965 0 .06)">
      <stop offset="0%" stop-color="#FF92A2"/>
      <stop offset="100%" stop-color="#BF1519"/>
    </radialGradient>
    <radialGradient id="logo-c" cx="-5.331%" cy="58.731%" r="49.865%" fx="-5.331%" fy="58.731%" gradientTransform="matrix(1 0 0 .8841 0 .068)">
      <stop offset="55%" stop-color="#231F20"/>
      <stop offset="100%" stop-color="#231F20" stop-opacity="0"/>
    </radialGradient>
    <linearGradient id="logo-d" x1="11.307%" x2="99.412%" y1="91.033%" y2="16.601%">
      <stop offset="1%" stop-color="#FFF"/>
      <stop offset="100%" stop-color="#FFF" stop-opacity="0"/>
    </linearGradient>
    <filter id="logo-e" width="859.3%" height="1090%" x="-379.7%" y="-495%" filterUnits="objectBoundingBox">
      <feGaussianBlur in="SourceGraphic" stdDeviation="10"/>
    </filter>
    <radialGradient id="logo-f" cx="73%" cy="33.735%" r="27.797%" fx="73%" fy="33.735%" gradientTransform="matrix(.9496 0 0 1 .037 0)">
      <stop offset="0%" stop-color="#F57789"/>
      <stop offset="100%" stop-color="#CA2F33"/>
    </radialGradient>
    <filter id="logo-g" width="758.1%" height="1337.5%" x="-329%" y="-618.7%" filterUnits="objectBoundingBox">
      <feGaussianBlur in="SourceGraphic" stdDeviation="10"/>
    </filter>
    <linearGradient id="logo-h" x1="5.415%" x2="94.214%" y1="2.225%" y2="92.946%">
      <stop offset="1%" stop-color="#475023"/>
      <stop offset="100%" stop-color="#485425"/>
    </linearGradient>
    <linearGradient id="logo-i" x1="75.401%" x2="21.447%" y1="52.752%" y2="18.695%">
      <stop offset="0%" stop-color="#42642F"/>
      <stop offset="100%" stop-color="#527435"/>
    </linearGradient>
    <linearGradient id="logo-j" x1="53.738%" x2="50.595%" y1="-2.471%" y2="55.652%">
      <stop offset="0%" stop-color="#231F20"/>
      <stop offset="100%" stop-color="#231F20" stop-opacity="0"/>
    </linearGradient>
    <linearGradient id="logo-k" x1="77.388%" x2="12.636%" y1="83.39%" y2="44.767%">
      <stop offset="0%" stop-color="#688C3C"/>
      <stop offset="100%" stop-color="#5E803E"/>
    </linearGradient>
    <linearGradient id="logo-l" x1="45.743%" x2="49.123%" y1="100.193%" y2="44.912%">
      <stop offset="0%" stop-color="#231F20"/>
      <stop offset="100%" stop-color="#231F20" stop-opacity="0"/>
    </linearGradient>
  </defs>
  <g fill="none" fill-rule="evenodd" transform="translate(1 -6)">
    <g transform="scale(-1 1) rotate(-15 17.676 221.488)">
      <path fill="url(#logo-a)" d="M10.0981319,26.9654814 C10.0981319,26.9654814 8.04785016,15.5603377 1.07788122,6.3539938 L0.0510922291,5.99712052 C0.235901132,5.13483953 0.218415046,4.24159785 1.36424205e-12,3.38717631 C1.36424205e-12,3.38717631 1.23115791,3.74569417 2.72601764,3.03030303 L5.44214647,9.93752779 C5.44214647,9.93752779 11.1315134,22.2718577 12.1566543,26.7122165 C12.1484136,26.7105719 12.1484136,27.7828363 10.0981319,26.9654814 Z"/>
      <path fill="#353535" d="M10.0653812,23.7901159 C10.0653812,23.7901159 8.02174902,12.5068131 1.07438539,3.39882042 L0.0509265246,3.04575961 C0.235136047,2.19269035 0.217706673,1.30899115 -5.32907052e-15,0.463697376 C-5.32907052e-15,0.463697376 1.22716496,0.818385194 2.71717651,0.110636567 L5.42449627,6.94407159 C5.42449627,6.94407159 11.0954112,19.1466341 12.1172273,23.5395566 C12.1090133,23.5379296 12.1090133,24.5987391 10.0653812,23.7901159 Z" opacity=".8" transform="translate(0 3.03)"/>
      <path fill="url(#logo-b)" d="M23.0976431,27.2613937 C23.0976431,27.2613937 27.0894836,21.9855561 34.6686191,21.8206862 C34.6686191,21.8206862 41.5897588,21.4101601 44.6717781,31.1012143 C44.6717781,31.1012143 46.6928809,39.3034931 40.377747,44.1753994 C40.377747,44.1753994 34.9204446,49.9178189 26.5842079,45.7647454 C26.5842079,45.7647454 24.5631051,44.8925835 24.6134702,43.0987988 L23.0976431,27.2613937 Z"/>
      <g opacity=".4">
        <path fill="#353535" d="M0.0644928386,5.48741259 C0.0644928386,5.48741259 4.12754167,0.265967366 11.8418774,0.102797203 C11.8418774,0.102797203 18.8864797,-0.303496503 22.0234776,9.28764569 C22.0234776,9.28764569 24.0806337,17.4053613 17.6528475,22.2270396 C17.6528475,22.2270396 12.0981951,27.9102564 3.61325262,23.8 C3.61325262,23.8 1.55609644,22.9368298 1.60735998,21.1615385 L0.0644928386,5.48741259 Z" opacity=".423" transform="translate(22.49 21.818)"/>
      </g>
      <path fill="#231F20" d="M27.9633668,27.8162021 C28.7128581,27.0373015 28.7739026,25.8924519 28.100717,25.2579166 C27.4275313,24.6233812 26.2744678,24.7392091 25.5249765,25.516431 C24.7754852,26.2936529 24.7161363,27.4385024 25.3893219,28.0747165 C26.0625076,28.7109305 27.2155711,28.593424 27.9633668,27.8162021 Z"/>
      <path fill="#231F20" d="M27.9633668,27.8162021 C28.7128581,27.0373015 28.7739026,25.8924519 28.100717,25.2579166 C27.4275313,24.6233812 26.2744678,24.7392091 25.5249765,25.516431 C24.7754852,26.2936529 24.7161363,27.4385024 25.3893219,28.0747165 C26.0625076,28.7109305 27.2155711,28.593424 27.9633668,27.8162021 Z"/>
      <path fill="url(#logo-c)" fill-opacity=".4" d="M0.0644928386,5.48741259 C0.0644928386,5.48741259 4.12754167,0.265967366 11.8418774,0.102797203 C11.8418774,0.102797203 18.8864797,-0.303496503 22.0234776,9.28764569 C22.0234776,9.28764569 24.0806337,17.4053613 17.6528475,22.2270396 C17.6528475,22.2270396 12.0981951,27.9102564 3.61325262,23.8 C3.61325262,23.8 1.55609644,22.9368298 1.60735998,21.1615385 L0.0644928386,5.48741259 Z" opacity=".5" transform="translate(22.49 21.818)"/>
      <path fill="url(#logo-d)" d="M26.1368067,30.8544266 C26.1368067,30.8544266 33.0056485,27.1594375 34.0386319,26.6666667 C34.0386319,26.6666667 34.0386319,31.8954248 27.1697901,32.7272727 C27.1697901,32.7272727 26.1368067,32.3327392 26.1368067,30.8544266 Z" filter="url(#logo-e)"/>
      <path fill="url(#logo-f)" d="M12.2233838,25.7589566 C12.2233838,25.7589566 18.255396,23.3024822 22.502359,26.459377 C22.502359,26.459377 27.5101891,29.8814311 27.3486462,36.8973089 C27.3486462,36.8973089 26.7994003,46.5797872 17.1536733,48.8611566 C17.1536733,48.8611566 9.91978199,50.4687882 5.74874414,45.1789464 C5.74874414,45.1789464 -0.178265101,38.5933269 2.5340403,31.487395 C2.53080944,31.487395 4.4790169,26.8746263 12.2233838,25.7589566 Z"/>
      <path fill="#FFF" d="M11.5675989,31.7176176 C11.5675989,31.7176176 18.1459242,30.2281141 14.9071607,27.5225082 C14.9071607,27.5225082 7.81658198,25.7471763 6.68631962,31.6625823 C6.68631962,31.6625823 6.58386893,32.6567681 11.5675989,31.7176176 Z" filter="url(#logo-g)" opacity=".497"/>
      <path fill="url(#logo-h)" d="M25.9600883,27.2727273 C25.9600883,27.2727273 27.3524721,27.2229208 27.3524721,25.4732666 L14.7877305,12.6853351 L13.6942856,13.0870005 L25.9600883,27.2727273 Z"/>
      <path fill="#353535" d="M11.9650422,14.4743802 C11.9650422,14.4743802 13.3516244,14.4231405 13.3516244,12.6231405 L1.12391163,0.133884298 L0.035022742,0.547107438 L11.9650422,14.4743802 Z" opacity=".8" transform="translate(13.98 12.727)"/>
      <path fill="url(#logo-i)" d="M24.2061472,2.05718585 C11.2561258,-2.48158054 1.32663623,3.12028942 0.649255508,3.51809592 C4.2559822,5.95294604 28.8094052,9.50062554 32.2565566,9.98931025 C30.4833171,4.50060938 24.2061472,2.05718585 24.2061472,2.05718585 Z"/>
      <path fill="url(#logo-j)" d="M24.2061472,2.05718585 C11.2561258,-2.48158054 1.32663623,3.12028942 0.649255508,3.51809592 C4.2559822,5.95294604 28.8094052,9.50062554 32.2565566,9.98931025 C30.4833171,4.50060938 24.2061472,2.05718585 24.2061472,2.05718585 Z" opacity=".5" style="mix-blend-mode:multiply"/>
      <path fill="url(#logo-k)" d="M0.689909031,3.32264358 L0.649255508,3.34424316 C0.802112755,4.27468646 1.86398278,6.13557307 1.86398278,6.13557307 C6.56678232,14.7122665 17.3887501,13.5757965 17.3887501,13.5757965 C27.4008998,13.8349914 32.2565566,9.58818233 32.2565566,9.58818233 C28.8123901,9.11963766 4.29181117,5.68198196 0.689909031,3.32264358 Z"/>
      <path fill="url(#logo-l)" d="M0.689909031,3.32264358 L0.649255508,3.34424316 C0.802112755,4.27468646 1.86398278,6.13557307 1.86398278,6.13557307 C6.56678232,14.7122665 17.3887501,13.5757965 17.3887501,13.5757965 C27.4008998,13.8349914 32.2565566,9.58818233 32.2565566,9.58818233 C28.8123901,9.11963766 4.29181117,5.68198196 0.689909031,3.32264358 Z" opacity=".5" style="mix-blend-mode:multiply"/>
    </g>
    <path fill="#000" d="M129.966796,41.62355 C126.355159,44.7163157 121.948636,46.4242424 117.395291,46.4242424 C112.339805,46.4242424 109.29401,44.3069872 108.415751,40.8594111 C105.214761,44.0886512 101.239653,46.3151515 98.0730485,46.3151515 C94.9548666,46.3151515 93.9154727,44.2969697 93.9154727,42.0606061 C93.9154727,38.9515152 96.7601298,32.569697 96.7601298,30.3333333 C96.7601298,29.5151515 96.3771952,29.2424242 95.8848507,29.2424242 C94.2437024,29.2424242 90.7425859,33.769697 86.6944201,43.6424242 C85.9832558,45.3878788 85.3267965,46.2606061 82.7009592,46.2606061 C81.5521553,46.2606061 79.8563021,46.0969697 77.8869241,45.8787879 C78.319256,44.8528377 78.7939552,43.5066531 79.2868276,41.9511587 C74.5705405,46.1954285 69.4353941,48.1151515 63.7798866,48.1151515 C53.9877016,48.1151515 48.626617,42.0060606 48.626617,33.0060606 C48.626617,19.969697 59.8958355,6.06060606 73.7361864,6.06060606 C78.7143363,6.06060606 83.2001418,8.07878788 83.2548467,14.1333333 C83.2548467,19.7515152 78.2766968,23.6787879 73.6267765,23.6787879 C70.6180046,23.6787879 69.4144958,22.4242424 69.4144958,19.5333333 C69.9615453,19.7515152 70.6727096,19.9151515 71.3291689,19.9151515 C74.173826,19.9151515 76.4167287,17.4060606 76.4167287,14.4606061 C76.4167287,11.8424242 74.8849903,10.4242424 72.149743,10.4242424 C65.36633,10.4242424 57.8170477,21.8242424 57.8170477,32.4060606 C57.8170477,38.9515152 61.0446394,42.769697 67.2262981,42.769697 C71.9856282,42.769697 76.7996633,40.4787879 81.0666489,35.6787879 C81.0700091,35.6921892 81.0733577,35.7055562 81.0766948,35.718889 C83.1551653,27.8681879 85.0532718,18.6841928 85.0532718,16.0424242 C85.0532718,14.7333333 84.834452,13.5333333 84.2326976,12.8242424 C86.6944201,11.569697 89.2108475,10.8060606 91.0708156,10.8060606 C92.602554,10.8060606 93.5325381,11.4606061 93.5325381,13.2606061 C93.5325381,15.169697 91.7819799,24.2787879 89.703192,31.6424242 C94.4625222,26.2424242 98.7842127,23.4060606 101.84769,23.4060606 C103.652953,23.4060606 104.965871,24.4424242 104.965871,26.8424242 C104.965871,30.9333333 101.9571,37.6969697 101.9571,40.0969697 C101.9571,40.6969697 102.121214,40.969697 102.558854,40.969697 C103.440462,40.969697 105.932926,38.9780602 108.355022,36.4492421 C109.530783,30.0758628 115.656427,23.4060606 123.850474,23.4060606 C128.11746,23.4060606 130.250953,24.8242424 130.250953,27.8242424 C130.250953,33.2787879 123.850474,36.9333333 117.61411,36.9333333 L116.246487,36.9333333 C116.082372,37.5333333 116.027667,38.1878788 116.027667,38.6787879 C116.027667,40.9151515 117.231176,42.3333333 119.857013,42.3333333 C122.81108,42.3333333 126.695131,40.9151515 130.852707,36.3333333 C130.943336,36.2429683 131.033965,36.1692374 131.115382,36.1213265 C133.16235,33.5729543 134.736503,31.099169 135.568729,29.0787879 C135.732844,28.6969697 135.787549,28.4787879 135.787549,28.3151515 C135.787549,27.6606061 134.36522,27.2787879 134.36522,25.6424242 C134.36522,24.3333333 135.185794,22.2060606 137.756927,19.969697 C140.163944,23.8424242 149.956129,23.7878788 149.956129,28.8060606 C149.956129,32.5151515 146.400308,38.0787879 146.400308,40.1515152 C146.400308,40.8060606 146.673833,41.0787879 147.056767,41.0787879 C147.787085,41.0787879 150.103016,39.5650737 152.944829,36.6697255 C155.209436,33.9295252 156.953225,31.2438284 157.845038,29.0787879 C158.009153,28.6969697 158.063858,28.4787879 158.063858,28.3151515 C158.063858,27.6606061 156.641529,27.2787879 156.641529,25.6424242 C156.641529,24.3333333 157.462103,22.2060606 160.033236,19.969697 C162.440253,23.8424242 172.232438,23.7878788 172.232438,28.8060606 C172.232438,32.5151515 168.676617,38.0787879 168.676617,40.1515152 C168.676617,40.8060606 168.950142,41.0787879 169.333076,41.0787879 C170.261359,41.0787879 173.751378,38.6332135 177.626919,34.0132983 C178.467449,31.3378865 179.300773,28.7373635 179.300773,27.1151515 C179.300773,26.1878788 179.136658,25.4242424 178.699019,24.8242424 C180.777807,23.8969697 183.130119,23.4060606 184.552448,23.4060606 C186.631236,23.4060606 187.506515,24.3878788 187.506515,26.1878788 C187.506515,29.4606061 183.841283,38.1333333 183.841283,40.1515152 C183.841283,40.969697 184.169513,41.3515152 184.771267,41.3515152 C186.357711,41.3515152 190.187057,37.7515152 192.32055,32.8424242 C193.305239,30.6606061 193.961698,27.8242424 193.961698,26.4060606 C193.961698,25.8606061 193.906993,25.0424242 193.797583,24.5515152 C195.548142,23.7878788 197.681634,23.4060606 198.994553,23.4060606 C200.963931,23.4060606 202.112735,24.0060606 202.112735,25.8606061 C202.112735,27.8787879 199.322783,36.6060606 197.07988,42.6060606 C200.198062,40.4242424 204.355638,36.9333333 206.270311,34.369697 C206.543835,34.0424242 206.762655,33.8787879 206.92677,33.8787879 C207.200295,33.8787879 207.309705,34.1515152 207.309705,34.6969697 C207.309705,36.8787879 206.981475,37.969697 206.051491,39.0606061 C203.863293,41.6787879 199.924537,45.1151515 195.493437,47.9515152 C191.445271,55.8060606 186.685941,58.6969697 184.333628,58.6969697 C182.637775,58.6969697 181.488971,55.4242424 181.488971,53.569697 C181.488971,52.369697 184.005398,49.6969697 187.23299,47.7333333 C187.834744,47.3515152 188.162974,47.0242424 188.327089,46.6969697 C188.819433,45.769697 189.913532,42.7151515 190.460582,40.8060606 C185.263612,45.0606061 182.528365,45.9333333 179.793118,45.9333333 C177.05787,45.9333333 175.909067,44.0787879 175.909067,41.4606061 C175.909067,41.0436806 175.949508,40.5857818 176.021558,40.0965678 C172.479711,43.8712753 168.469149,46.3151515 165.230206,46.3151515 C162.276139,46.3151515 161.127335,44.569697 161.127335,41.8424242 C161.127335,38.7333333 164.573746,33.3333333 164.573746,31.4787879 C164.573746,30.6606061 163.370237,30.3878788 161.783794,29.569697 C159.486186,34.0424242 156.3133,38.4060606 152.702773,41.4606061 C152.593363,41.569697 152.374544,41.6242424 152.210429,41.6242424 C152.209625,41.6242424 152.208819,41.6242411 152.208009,41.6242385 C149.077389,44.5174402 145.731842,46.3151515 142.953896,46.3151515 C139.999829,46.3151515 138.851026,44.569697 138.851026,41.8424242 C138.851026,38.7333333 142.297437,33.3333333 142.297437,31.4787879 C142.297437,30.6606061 141.093928,30.3878788 139.507485,29.569697 C137.209877,34.0424242 134.036991,38.4060606 130.426464,41.4606061 C130.324171,41.5626007 130.12624,41.6169153 129.966796,41.62355 Z M123.24872,27.9333333 C123.24872,26.8424242 122.81108,26.1878788 121.990506,26.1878788 C120.185243,26.1878788 118.106455,29.1333333 116.793536,34.5878788 C120.239948,34.2606061 123.24872,31.2606061 123.24872,27.9333333 Z"/>
  </g>
</svg>