<svg xmlns="http://www.w3.org/2000/svg" width="194" height="32" viewBox="0 0 194 32">
  <g fill="none" fill-rule="evenodd">
	<path fill="#DA2140" d="M47.8359375,19.1640625 C47.7343745,19.9531289 47.5312515,20.6777311 47.2265625,21.3378906 C46.9218735,21.9980502 46.5253931,22.5644508 46.0371094,23.0371094 C45.5488257,23.509768 44.9707065,23.8769518 44.3027344,24.1386719 C43.6347623,24.4003919 42.8906291,24.53125 42.0703125,24.53125 C41.367184,24.53125 40.7285185,24.4316416 40.1542969,24.2324219 C39.5800753,24.0332021 39.0683616,23.7578143 38.6191406,23.40625 C38.1699196,23.0546857 37.7832047,22.6406274 37.4589844,22.1640625 C37.134764,21.6874976 36.8652354,21.1679716 36.6503906,20.6054688 C36.4355458,20.0429659 36.2753912,19.4531281 36.1699219,18.8359375 C36.0644526,18.2187469 36.0078125,17.5937532 36,16.9609375 L36,14.5820312 C36.0078125,13.9492156 36.0644526,13.3242218 36.1699219,12.7070312 C36.2753912,12.0898407 36.4355458,11.5000028 36.6503906,10.9375 C36.8652354,10.3749972 37.134764,9.85351803 37.4589844,9.37304688 C37.7832047,8.89257572 38.1699196,8.47656426 38.6191406,8.125 C39.0683616,7.77343574 39.5781221,7.49804787 40.1484375,7.29882812 C40.7187529,7.09960838 41.3593714,7 42.0703125,7 C42.9218793,7 43.6835904,7.13085807 44.3554688,7.39257812 C45.0273471,7.65429818 45.6054663,8.02538822 46.0898438,8.50585938 C46.5742212,8.98633053 46.9628892,9.56249664 47.2558594,10.234375 C47.5488296,10.9062534 47.742187,11.6484334 47.8359375,12.4609375 L45.6679688,12.4609375 C45.5976559,11.9453099 45.4765634,11.464846 45.3046875,11.0195312 C45.1328116,10.5742165 44.9023452,10.1835954 44.6132812,9.84765625 C44.3242173,9.51171707 43.9707052,9.24804783 43.5527344,9.05664062 C43.1347635,8.86523342 42.6406279,8.76953125 42.0703125,8.76953125 C41.5546849,8.76953125 41.0996113,8.85351479 40.7050781,9.02148438 C40.3105449,9.18945396 39.9707046,9.4179673 39.6855469,9.70703125 C39.4003892,9.9960952 39.1621103,10.3320293 38.9707031,10.7148438 C38.7792959,11.0976582 38.6250006,11.5039041 38.5078125,11.9335938 C38.3906244,12.3632834 38.3066409,12.8027321 38.2558594,13.2519531 C38.2050779,13.7011741 38.1796875,14.1367166 38.1796875,14.5585938 L38.1796875,16.9609375 C38.1796875,17.3828146 38.2050779,17.8183571 38.2558594,18.2675781 C38.3066409,18.7167991 38.3906244,19.158201 38.5078125,19.5917969 C38.6250006,20.0253928 38.7773428,20.4335918 38.9648438,20.8164062 C39.1523447,21.1992207 39.3906236,21.5371079 39.6796875,21.8300781 C39.9687514,22.1230483 40.3085918,22.3535148 40.6992188,22.5214844 C41.0898457,22.689454 41.5468724,22.7734375 42.0703125,22.7734375 C42.6406279,22.7734375 43.1347635,22.6835946 43.5527344,22.5039062 C43.9707052,22.3242179 44.3242173,22.0722672 44.6132812,21.7480469 C44.9023452,21.4238265 45.1328116,21.0410178 45.3046875,20.5996094 C45.4765634,20.1582009 45.5976559,19.6796901 45.6679688,19.1640625 L47.8359375,19.1640625 Z M61.8867188,24.296875 L59.8359375,24.296875 L59.8359375,16.4101562 L52.8398438,16.4101562 L52.8398438,24.296875 L50.8007812,24.296875 L50.8007812,7.234375 L52.8398438,7.234375 L52.8398438,14.5703125 L59.8359375,14.5703125 L59.8359375,7.234375 L61.8867188,7.234375 L61.8867188,24.296875 Z M74.9765625,16.4101562 L67.8515625,16.4101562 L67.8515625,22.4570312 L76.1601562,22.4570312 L76.1601562,24.296875 L65.6835938,24.296875 L65.6835938,7.234375 L76.0546875,7.234375 L76.0546875,9.0859375 L67.8515625,9.0859375 L67.8515625,14.5703125 L74.9765625,14.5703125 L74.9765625,16.4101562 Z M85.640625,17.3359375 L82.2304688,17.3359375 L82.2304688,24.296875 L80.0742188,24.296875 L80.0742188,7.234375 L85.078125,7.234375 C85.875004,7.25000008 86.6249965,7.3632802 87.328125,7.57421875 C88.0312535,7.7851573 88.6464817,8.10156039 89.1738281,8.5234375 C89.7011745,8.94531461 90.1152329,9.47460619 90.4160156,10.1113281 C90.7167984,10.7480501 90.8671875,11.4960895 90.8671875,12.3554688 C90.8671875,12.910159 90.7871102,13.4179664 90.6269531,13.8789062 C90.4667961,14.3398461 90.2460952,14.7578106 89.9648438,15.1328125 C89.6835923,15.5078144 89.3476582,15.8398423 88.9570312,16.1289062 C88.5664043,16.4179702 88.1367211,16.6640615 87.6679688,16.8671875 L91.2890625,24.15625 L91.2773438,24.296875 L88.9921875,24.296875 L85.640625,17.3359375 Z M82.2304688,15.5546875 L85.1367188,15.5546875 C85.6210962,15.546875 86.0781229,15.4707038 86.5078125,15.3261719 C86.9375021,15.1816399 87.3144515,14.9726576 87.6386719,14.6992188 C87.9628922,14.4257799 88.2187491,14.0917988 88.40625,13.6972656 C88.5937509,13.3027324 88.6875,12.8476588 88.6875,12.3320312 C88.6875,11.7851535 88.5976571,11.3066427 88.4179688,10.8964844 C88.2382804,10.4863261 87.9882829,10.1425795 87.6679688,9.86523438 C87.3476546,9.58788924 86.9667991,9.37890695 86.5253906,9.23828125 C86.0839822,9.09765555 85.6015651,9.02343754 85.078125,9.015625 L82.2304688,9.015625 L82.2304688,15.5546875 Z M100.042969,17.3359375 L96.6328125,17.3359375 L96.6328125,24.296875 L94.4765625,24.296875 L94.4765625,7.234375 L99.4804688,7.234375 C100.277348,7.25000008 101.02734,7.3632802 101.730469,7.57421875 C102.433597,7.7851573 103.048825,8.10156039 103.576172,8.5234375 C104.103518,8.94531461 104.517577,9.47460619 104.818359,10.1113281 C105.119142,10.7480501 105.269531,11.4960895 105.269531,12.3554688 C105.269531,12.910159 105.189454,13.4179664 105.029297,13.8789062 C104.86914,14.3398461 104.648439,14.7578106 104.367188,15.1328125 C104.085936,15.5078144 103.750002,15.8398423 103.359375,16.1289062 C102.968748,16.4179702 102.539065,16.6640615 102.070312,16.8671875 L105.691406,24.15625 L105.679688,24.296875 L103.394531,24.296875 L100.042969,17.3359375 Z M96.6328125,15.5546875 L99.5390625,15.5546875 C100.02344,15.546875 100.480467,15.4707038 100.910156,15.3261719 C101.339846,15.1816399 101.716795,14.9726576 102.041016,14.6992188 C102.365236,14.4257799 102.621093,14.0917988 102.808594,13.6972656 C102.996095,13.3027324 103.089844,12.8476588 103.089844,12.3320312 C103.089844,11.7851535 103.000001,11.3066427 102.820312,10.8964844 C102.640624,10.4863261 102.390627,10.1425795 102.070312,9.86523438 C101.749998,9.58788924 101.369143,9.37890695 100.927734,9.23828125 C100.486326,9.09765555 100.003909,9.02343754 99.4804688,9.015625 L96.6328125,9.015625 L96.6328125,15.5546875 Z M113.824219,15.8007812 L117.714844,7.234375 L120.175781,7.234375 L114.867188,17.9335938 L114.832031,24.296875 L112.816406,24.296875 L112.78125,17.9335938 L107.472656,7.234375 L109.945312,7.234375 L113.824219,15.8007812 Z"/>
	<path fill="#425C23" d="M140.050781,17.78125 C140.050781,18.8671929 139.925782,19.8300739 139.675781,20.6699219 C139.42578,21.5097698 139.066409,22.216794 138.597656,22.7910156 C138.128904,23.3652372 137.554691,23.8007798 136.875,24.0976562 C136.195309,24.3945327 135.417973,24.5429688 134.542969,24.5429688 C133.675777,24.5429688 132.900394,24.3945327 132.216797,24.0976562 C131.5332,23.8007798 130.953127,23.3652372 130.476562,22.7910156 C129.999998,22.216794 129.634767,21.5097698 129.380859,20.6699219 C129.126952,19.8300739 129,18.8671929 129,17.78125 L129,13.7851562 C129,12.6992133 129.124999,11.7363323 129.375,10.8964844 C129.625001,10.0566364 129.986326,9.34765914 130.458984,8.76953125 C130.931643,8.19140336 131.509762,7.75195463 132.193359,7.45117188 C132.876957,7.15038912 133.652339,7 134.519531,7 C135.394536,7 136.173825,7.15038912 136.857422,7.45117188 C137.541019,7.75195463 138.119138,8.19140336 138.591797,8.76953125 C139.064455,9.34765914 139.42578,10.0566364 139.675781,10.8964844 C139.925782,11.7363323 140.050781,12.6992133 140.050781,13.7851562 L140.050781,17.78125 Z M131.179688,17.3476562 L137.824219,12.25 C137.699218,11.1171818 137.369143,10.2558623 136.833984,9.66601562 C136.298825,9.07616893 135.527349,8.78125 134.519531,8.78125 C133.378901,8.78125 132.537112,9.16601178 131.994141,9.93554688 C131.451169,10.705082 131.179688,11.8281176 131.179688,13.3046875 L131.179688,17.3476562 Z M137.871094,14.3242188 L131.238281,19.3984375 C131.371094,20.5000055 131.710935,21.3398409 132.257812,21.9179688 C132.80469,22.4960966 133.566401,22.7851562 134.542969,22.7851562 C135.691412,22.7851562 136.5332,22.3945352 137.068359,21.6132812 C137.603518,20.8320273 137.871094,19.7070386 137.871094,18.2382812 L137.871094,14.3242188 Z M147.515625,22.9023438 C147.515625,22.6679676 147.552734,22.4492198 147.626953,22.2460938 C147.701172,22.0429677 147.808593,21.8652351 147.949219,21.7128906 C148.089844,21.5605461 148.265624,21.4414067 148.476562,21.3554688 C148.687501,21.2695308 148.933592,21.2265625 149.214844,21.2265625 C149.496095,21.2265625 149.74414,21.2695308 149.958984,21.3554688 C150.173829,21.4414067 150.353515,21.5605461 150.498047,21.7128906 C150.642579,21.8652351 150.751953,22.0429677 150.826172,22.2460938 C150.900391,22.4492198 150.9375,22.6679676 150.9375,22.9023438 C150.9375,23.1289074 150.900391,23.3417959 150.826172,23.5410156 C150.751953,23.7402354 150.642579,23.9140618 150.498047,24.0625 C150.353515,24.2109382 150.173829,24.3261715 149.958984,24.4082031 C149.74414,24.4902348 149.496095,24.53125 149.214844,24.53125 C148.933592,24.53125 148.687501,24.4902348 148.476562,24.4082031 C148.265624,24.3261715 148.089844,24.2109382 147.949219,24.0625 C147.808593,23.9140618 147.701172,23.7402354 147.626953,23.5410156 C147.552734,23.3417959 147.515625,23.1289074 147.515625,22.9023438 Z M168.855469,17.78125 C168.855469,18.8671929 168.73047,19.8300739 168.480469,20.6699219 C168.230468,21.5097698 167.871096,22.216794 167.402344,22.7910156 C166.933591,23.3652372 166.359378,23.8007798 165.679688,24.0976562 C164.999997,24.3945327 164.222661,24.5429688 163.347656,24.5429688 C162.480464,24.5429688 161.705082,24.3945327 161.021484,24.0976562 C160.337887,23.8007798 159.757815,23.3652372 159.28125,22.7910156 C158.804685,22.216794 158.439454,21.5097698 158.185547,20.6699219 C157.931639,19.8300739 157.804688,18.8671929 157.804688,17.78125 L157.804688,13.7851562 C157.804688,12.6992133 157.929686,11.7363323 158.179688,10.8964844 C158.429689,10.0566364 158.791013,9.34765914 159.263672,8.76953125 C159.73633,8.19140336 160.31445,7.75195463 160.998047,7.45117188 C161.681644,7.15038912 162.457027,7 163.324219,7 C164.199223,7 164.978512,7.15038912 165.662109,7.45117188 C166.345707,7.75195463 166.923826,8.19140336 167.396484,8.76953125 C167.869143,9.34765914 168.230468,10.0566364 168.480469,10.8964844 C168.73047,11.7363323 168.855469,12.6992133 168.855469,13.7851562 L168.855469,17.78125 Z M159.984375,17.3476562 L166.628906,12.25 C166.503906,11.1171818 166.173831,10.2558623 165.638672,9.66601562 C165.103513,9.07616893 164.332036,8.78125 163.324219,8.78125 C162.183588,8.78125 161.3418,9.16601178 160.798828,9.93554688 C160.255857,10.705082 159.984375,11.8281176 159.984375,13.3046875 L159.984375,17.3476562 Z M166.675781,14.3242188 L160.042969,19.3984375 C160.175782,20.5000055 160.515622,21.3398409 161.0625,21.9179688 C161.609378,22.4960966 162.371089,22.7851562 163.347656,22.7851562 C164.496099,22.7851562 165.337888,22.3945352 165.873047,21.6132812 C166.408206,20.8320273 166.675781,19.7070386 166.675781,18.2382812 L166.675781,14.3242188 Z M176.320312,22.9023438 C176.320312,22.6679676 176.357422,22.4492198 176.431641,22.2460938 C176.50586,22.0429677 176.613281,21.8652351 176.753906,21.7128906 C176.894532,21.5605461 177.070311,21.4414067 177.28125,21.3554688 C177.492189,21.2695308 177.73828,21.2265625 178.019531,21.2265625 C178.300783,21.2265625 178.548827,21.2695308 178.763672,21.3554688 C178.978517,21.4414067 179.158202,21.5605461 179.302734,21.7128906 C179.447266,21.8652351 179.55664,22.0429677 179.630859,22.2460938 C179.705078,22.4492198 179.742188,22.6679676 179.742188,22.9023438 C179.742188,23.1289074 179.705078,23.3417959 179.630859,23.5410156 C179.55664,23.7402354 179.447266,23.9140618 179.302734,24.0625 C179.158202,24.2109382 178.978517,24.3261715 178.763672,24.4082031 C178.548827,24.4902348 178.300783,24.53125 178.019531,24.53125 C177.73828,24.53125 177.492189,24.4902348 177.28125,24.4082031 C177.070311,24.3261715 176.894532,24.2109382 176.753906,24.0625 C176.613281,23.9140618 176.50586,23.7402354 176.431641,23.5410156 C176.357422,23.3417959 176.320312,23.1289074 176.320312,22.9023438 Z M193.980469,24.3085938 L191.8125,24.3085938 L191.8125,10.0117188 L187.347656,11.7109375 L187.347656,9.73046875 L193.804688,7.24609375 L193.980469,7.24609375 L193.980469,24.3085938 Z"/>
	<path fill="#DA2140" d="M19.0018859 20C17.9843248 20 17.0281605 20.254391 16.1877833 20.7017636 16.4351581 20.9000135 16.6878057 21.0965073 16.9474509 21.291245L17.2281605 21.500018 16.2158542 22.8579136 15.9351446 22.6491407C15.5333796 22.3491362 15.1491577 22.0456015 14.7789803 21.7386221 13.6824612 22.8263668 13 24.3333733 13 26.0000898 13 29.3141655 15.6860542 32 18.9999996 32 22.312373 32 24.9999991 29.3139859 24.9999991 26.0000898 25.0017553 22.6860141 22.3156966 20.0001797 19.0017961 20.0001797L19.0018859 20zM6.65461487 21.5479735L6.71777229 21.8924465 5.05282731 22.2017712 4.98966989 21.8590529C4.96861891 21.7430573 4.85633056 21.1120843 4.73703121 20.1138315 2.02995733 20.6973417 0 23.1033707 0 25.9894267 0 29.3093922 2.68605435 32 6 32 9.31237368 32 12 29.3092123 12 25.9894267 12 22.8153275 9.54376825 20.2249634 6.43296654 20 6.54759488 20.9574444 6.65110263 21.5286266 6.65461487 21.5479735z"/>
	<path fill="#000" d="M7.75524158,4.64080056 C8.3193714,3.19395635 9.0546583,1.81324491 10.0047858,0.576696816 L9.21012152,0 C3.01529024,8.06706833 5.45503881,21.3518077 5.56333098,21.9132632 L6.53791588,21.7368585 C6.51870318,21.6367822 5.1389258,14.134413 6.95359778,7.12598996 C7.48106385,10.6387992 9.42147011,16.945164 16.4079253,22 L17,21.2282484 C7.85865569,14.613235 7.73122683,5.8097178 7.75537125,4.64121307 L7.75524158,4.64080056 Z"/>
	<path fill="#425C23" d="M8,7.72372194 C8,7.72372194 13.852142,2.95045358 21,9.29012207 C21,9.29012207 12.1341381,15.7166066 8.65222947,8.77640673 L17.3336136,9.00017991 L8,7.72372194 Z"/>
  </g>
</svg>
