<svg xmlns="http://www.w3.org/2000/svg" width="87" height="86" viewBox="0 0 87 86">
  <g fill="none">
    <path fill="#DD3735" d="M16.4170182,35.9329039 C16.5337729,36.0210206 16.7364414,36.0782965 16.5337729,36.2523271 C16.3883803,36.4549956 16.2143497,36.6290261 16.0986965,36.861434 C15.9830433,37.065204 15.896028,37.1224798 15.7219975,36.9781887 C15.9533039,36.6003882 16.1846103,36.2512256 16.4159168,35.9318024 L16.4170182,35.9329039 Z M74.6787033,66.351903 C74.6787033,66.4378168 74.7073412,66.4950927 74.7073412,66.5832094 C74.7657185,66.4675562 74.7657185,66.4091788 74.7954579,66.351903 L74.6787033,66.351903 Z M68.7660702,77.9315437 L63.721387,49.9522767 C63.6354732,49.9247403 63.51982,49.8674644 63.31605,49.809087 C63.3744274,49.9247403 63.4041668,50.0117555 63.4328047,50.0987708 C63.5759944,50.0701329 63.6354732,50.0701329 63.6927491,50.0414949 C63.6927491,50.012857 63.6927491,49.9842191 63.7224885,49.9533782 L68.7671717,77.934848 L68.7660702,77.9315437 Z M63.5484579,43.654133 C63.51982,43.7400468 63.51982,43.8281635 63.51982,43.9151788 C63.51982,43.8270621 63.51982,43.7389453 63.5506608,43.6530315 L63.5484579,43.654133 Z M63.51982,44.4648069 L63.51982,44.261037 C63.4350076,44.2896749 63.3479924,44.2896749 63.2312377,44.3194143 C63.3766303,44.3744873 63.5220229,44.4053281 63.5220229,44.462604 L63.51982,44.4648069 Z"/>
    <path fill="#DD3A0A" d="M86.0986324,37.4132651 C86.0413565,36.280965 86.0127186,35.1486649 85.8959639,34.0174663 C85.6932954,32.4787278 85.4906269,30.9113513 85.1425658,29.4023522 C84.88152,28.1543989 84.4486465,26.9637215 84.0124686,25.7741456 C83.461739,24.3807997 82.9110094,22.9588158 82.2148872,21.6238473 C81.08479,19.4760018 79.6066318,17.5594628 78.2441267,15.5570099 C77.3431331,14.2793172 76.184398,13.2351339 75.3142452,11.9288033 C74.821893,11.1743037 74.0971328,10.5365588 73.3723726,9.95719128 C72.2125361,9.02645825 70.9954237,8.18384195 69.7783112,7.37206651 C68.8508826,6.73322017 67.9234539,6.12411322 66.9365465,5.57228216 C66.1545104,5.13500285 65.314097,4.78694174 64.5023216,4.40914123 C63.574893,3.97406484 62.6761022,3.45087171 61.6330204,3.24820322 C61.3708731,3.19313026 61.1395666,3.10501352 60.8785208,3.01689678 C60.212138,2.78559035 59.5743931,2.52454451 58.9069088,2.32077456 C57.8935663,2.00135139 56.9077603,1.62465234 55.863577,1.36250505 C54.8524374,1.10145921 53.8082541,0.928530116 52.7640708,0.782036041 C51.6053357,0.611309863 50.4179627,0.550729606 49.2570246,0.437279307 C48.5036265,0.34916257 47.7502284,0.263248752 47.0254683,0.234610812 C45.9240091,0.177334933 44.7939119,0.177334933 43.6924527,0.148696994 C43.1417231,0.118957595 42.5623556,0.0605802567 42.0116259,0.0903196554 C41.1712126,0.118957595 40.3307992,0.205972873 39.4892844,0.32162609 C38.6786104,0.409742827 37.8668349,0.552932525 37.0847989,0.67078866 C36.1298338,0.786441878 35.1737672,0.844819216 34.2165991,0.961573892 C33.3178084,1.07832857 32.3903797,1.25235912 31.4926905,1.39775174 C31.1732673,1.45612908 30.8538441,1.5717823 30.534421,1.62905818 C29.8405017,1.77445079 29.1157415,1.83282813 28.4196193,2.06523602 C27.1749704,2.44413799 25.9270171,2.88031584 24.7099046,3.34292871 C23.578706,3.8077445 22.4772468,4.30119822 21.405527,4.88166723 C20.3040678,5.48967271 19.2598845,6.21443288 18.2168026,6.91275802 C17.2298951,7.5802423 16.2451906,8.27636452 15.2869211,9.03086408 C14.3616953,9.75782716 13.4915426,10.5696026 12.6500277,11.3824795 C12.1874149,11.8450924 11.8096143,12.3980249 11.374538,12.9201166 C10.6508793,13.7627329 9.92611909,14.5745083 9.22999687,15.4457625 C8.65283224,16.1727256 8.12853766,16.9261237 7.57780805,17.6817247 C6.59420498,19.0144904 5.7537916,20.4375757 4.97175556,21.860661 C4.65233238,22.44113 4.36264861,23.021599 4.07296484,23.6009665 C3.63788845,24.4711193 3.17417412,25.3137356 2.76883713,26.2136278 C2.4780519,26.8238362 2.24674546,27.4913205 2.07271491,28.1588048 C1.66847938,29.5818901 1.26204093,31.0336133 0.885341878,32.4544957 C0.537280767,33.7321884 0.450265489,35.0671569 0.422729008,36.3734876 C0.39298961,37.5344256 0.508642827,38.6667257 0.624296044,39.8276637 C0.654035443,40.1184489 0.481106347,40.46651 0.826964539,40.6978164 C0.711311322,41.0172396 0.7983266,41.1934731 0.970154237,41.248546 C0.76968866,41.5679692 1.05827097,41.7728406 0.943719216,42.0636259 C0.913979817,42.1209017 1.03183595,42.236555 1.08690891,42.3235702 C1.08690891,42.411687 1.05937243,42.5273402 1.08690891,42.6143555 C1.11774977,42.8754013 1.23340299,43.1364471 1.23340299,43.4272324 C1.23340299,43.6299009 1.40633209,43.8623088 1.46470942,44.0660787 C1.49334736,44.1519925 1.46470942,44.2973851 1.40633209,44.3557625 C1.23230153,44.558431 1.26093947,44.7324615 1.5219853,44.8492162 C1.66847938,45.2259153 1.61010204,45.3999458 1.5814641,45.5761793 C1.63873998,45.8361237 1.5517247,45.9231389 1.5814641,45.9815163 C1.81277053,46.4463321 1.90088727,46.9684237 1.92842375,47.4905154 C1.92842375,47.6072701 1.98680109,47.7240248 2.04517843,47.8683159 C2.07381637,47.8683159 2.04517843,48.4190455 2.04517843,48.4190455 C2.18836813,48.3331317 2.30622426,48.3044938 2.45051542,48.2461164 C2.53863216,48.6228155 2.62454597,48.9730795 2.74019919,49.2925027 C2.88559181,49.5238091 2.88559181,49.6383609 2.82831593,49.6669988 C2.94396915,50.1890905 3.00124502,50.6825442 3.20281206,51.1759979 C3.20281206,50.6252683 3.1477391,50.0745387 3.05962236,49.5513456 C3.46495935,49.6967382 3.81302046,49.8410294 4.04542836,49.8410294 C4.07516776,49.7529126 4.1038057,49.6383609 4.13354509,49.5799835 C3.95951454,49.4070544 3.81412192,49.1460086 3.64009137,48.971978 C3.69846871,49.2032845 3.64009137,49.2914012 3.64009137,49.379518 C3.52443815,49.3200392 3.37904553,49.2616618 3.23475438,49.2032845 C3.35040759,49.0600948 3.46606081,48.9136007 3.64009137,48.7406716 C3.64009137,48.4785243 3.49690167,48.245015 3.08936176,48.2747544 C3.26339232,48.2174785 3.43742287,48.1315647 3.64009137,48.0720859 C3.95951454,47.8991568 3.61145343,47.5797336 3.61145343,47.1732951 C3.64009137,46.6809429 3.35040759,46.1874892 3.26339232,45.664296 C3.1179997,44.8525206 3.1477391,43.6332052 3.06072382,42.8203283 C2.88669327,42.6749357 2.74130065,43.0516348 2.71266271,43.0813742 C2.80077945,43.7774964 2.88669327,44.4736186 2.94396915,45.1708423 C2.77104005,44.5903733 2.65428537,43.951527 2.50999422,43.2543033 C2.48025482,43.4580732 2.45161688,43.5450885 2.45161688,43.6618432 C2.30842718,43.8050329 2.42297894,43.9812664 2.50999422,44.1839348 C2.30732572,44.0958181 2.07491783,44.126659 2.07491783,44.126659 L2.07491783,44.9395359 C1.78633551,44.6487506 1.70042169,44.4174442 1.55392762,44.2125728 C1.49665174,43.9812664 1.46581088,43.7499599 1.41073792,43.5186535 C1.46581088,43.3721594 1.41073792,43.2851441 1.41073792,43.1992303 C1.37989706,42.9943589 1.35125912,42.7630525 1.32262118,42.5009052 C1.35125912,42.4722672 1.29398325,42.0382923 1.29398325,42.0382923 C1.52528968,42.0658288 1.67178376,42.0933653 1.81607491,42.0933653 C1.52639114,41.7188691 1.72795818,41.4853598 1.84581431,41.2529519 C1.90419165,41.1361972 2.10686014,41.1097622 2.16523748,40.9908046 C2.39654392,40.5557282 2.77434443,40.2087685 2.77434443,39.655836 C2.77434443,39.3947902 2.86246116,39.1051064 2.88999764,38.8429591 C2.94837498,38.3495054 3.00565086,37.8560517 3.03318734,37.3625979 C3.09266614,36.7237516 3.03318734,36.0849053 3.17968142,35.4757983 C3.41319077,34.4624558 3.70287454,33.445809 4.02119626,32.4291621 C4.25250269,31.7021991 4.51464998,31.0082797 4.8032323,30.2813167 C5.23830868,29.1490166 5.64474713,28.0167165 6.19547674,26.9438953 C6.97751278,25.3754173 7.8763035,23.8664182 8.74645628,22.3287812 C9.29718588,21.3705116 9.87655343,20.4706195 10.4867618,19.5420893 C11.0650279,18.6421972 11.643294,17.7136671 12.3118797,16.8710508 C13.2404099,15.6814748 14.2548538,14.5778127 15.3849509,13.5909052 C16.5447875,12.5467219 17.6462467,11.4727992 18.8919971,10.5145296 C20.513345,9.26327198 22.2250127,8.16181276 24.0490291,7.20354325 C25.5282888,6.42150721 27.063723,5.80909589 28.6002586,5.22862688 C29.5860646,4.85192783 30.6577844,4.67789727 31.6733298,4.3584741 C32.8320649,3.98067359 33.9919014,3.8077445 35.2090139,3.7780051 C35.9910499,3.7482657 36.7455495,3.66125042 37.5275855,3.57423514 C38.2237077,3.51916218 38.9187285,3.45968339 39.673228,3.37266811 C39.5851113,3.48832133 39.5564734,3.54669866 39.5278354,3.60397454 C39.2106152,4.06879033 38.8625541,4.53360612 38.5431309,4.99732045 C38.2820851,5.37512096 37.9924013,5.78155941 37.7313555,6.15825846 C37.2665397,6.76956832 36.7730859,7.37867526 36.339111,8.01752161 C35.6727282,8.97579112 35.0636212,9.96269858 34.367499,10.9198666 C33.6735797,11.8483967 32.9190802,12.719651 32.19432,13.6184417 C31.2382534,14.8674964 30.3394627,16.1440877 29.3833961,17.392041 C28.5132433,18.5816169 27.5880176,19.7161199 26.7465027,20.9056959 C25.9931046,21.9487777 25.3256203,23.0535413 24.6008602,24.1252611 C23.5291404,25.722377 22.4563191,27.288652 21.3845993,28.8857678 C20.5430844,30.1039817 19.7026711,31.2946591 18.8336197,32.5139745 C18.7752424,32.6020912 18.6882271,32.6285262 18.6023133,32.6869036 C18.3710069,33.0636026 18.3710069,33.2673726 18.2828901,33.4414031 C18.0515837,33.8764795 17.8202773,34.3115559 17.55813,34.7190958 C17.4127374,34.9504023 17.2100689,35.1530708 17.0360383,35.3854787 C17.0074004,35.0374175 17.4986512,34.863387 17.2673447,34.4272091 C17.124155,34.6607185 16.977661,34.863387 16.8333698,35.0957949 L16.4853087,35.7897142 C16.6009619,35.8778309 16.8047319,35.9362083 16.6009619,36.1091374 C16.5128452,36.2556314 16.4269314,36.4285605 16.3399161,36.5750546 C16.4853087,36.4869379 16.5712225,36.4010241 16.6593393,36.2842694 C16.6593393,36.6036925 16.4853087,36.8636369 16.3399161,37.1246828 C16.2242629,37.3559892 15.9345791,37.5322227 15.7319106,37.7051518 C15.7605485,37.7348912 15.963217,37.8219064 15.9929564,37.8505444 C16.2540023,37.7624276 16.3410175,37.6192379 16.3707569,37.7051518 C16.4588737,37.5894985 16.5447875,37.5024833 16.5734254,37.415468 C16.6879772,37.1246828 16.8620078,36.8933763 17.1516915,36.7766216 C17.2684462,36.7182443 17.35436,36.631229 17.4413753,36.5453152 C18.3115281,35.6443216 19.2103188,34.7741688 19.9923548,33.8158993 C21.2105687,32.3344366 22.3120279,30.797901 23.4729659,29.2889019 C23.9642168,28.6500556 24.5446858,28.0112092 25.065676,27.4010008 C25.1515898,28.0684851 25.0943139,28.70623 25.065676,29.3175399 C24.9775592,30.3903611 24.9202834,31.4653853 24.8343695,32.5668445 C24.8046301,33.0019209 24.8343695,33.4369973 24.8046301,33.8731752 C24.8046301,33.9888284 24.7165134,34.0758437 24.7165134,34.1925983 C24.7165134,34.4822821 24.8046301,34.8017053 24.8046301,35.0924905 C24.7165134,36.1664132 24.5997587,37.2105966 24.5127434,38.2845193 C24.483004,38.5158257 24.5986573,38.7493351 24.6559331,38.953105 C24.5127434,40.51938 24.8321666,42.1748732 24.5700193,43.829265 C24.7726878,43.5098418 24.8310652,43.3071733 24.8310652,43.1045048 C24.8586016,42.9304743 24.8310652,42.7564437 24.8310652,42.5537752 L24.8310652,42.26299 C24.8586016,41.7397969 24.9742549,41.1890672 24.916979,40.6658741 C24.8586016,40.0854051 24.8586016,39.5346755 24.9753563,38.9828444 C25.0337336,38.751538 24.9467184,38.4607528 25.092111,38.1699675 L25.092111,38.6050439 C25.063473,40.2572328 25.1218504,41.9127259 24.890544,43.5671177 C24.8608046,43.7125103 24.9786607,43.9746576 24.6592375,43.9449182 C24.3970902,44.4670099 24.7165134,44.8448104 24.4279311,45.1344941 C24.3684523,45.1928715 24.483004,45.4539173 24.5127434,45.6279479 C24.3959888,45.9771104 24.3959888,45.9771104 24.5700193,46.0057484 C24.5986573,46.6445947 24.6581361,47.2239623 24.6856725,47.8341707 C25.1482854,46.7327115 24.916979,45.5982085 25.1218504,44.4659084 C25.1504883,44.9307242 25.1802277,45.39554 25.1504883,45.8867908 C25.1504883,46.6434933 25.1218504,47.3682534 25.0932124,48.122753 C25.0932124,48.2681456 25.063473,48.4135382 25.0348351,48.5589308 C24.9467184,48.9664707 24.9191819,49.3718077 24.7737893,49.7485068 C24.6581361,50.039292 24.7165134,50.4754699 24.7165134,50.8224295 L24.7165134,51.9271931 C24.8321666,52.4206468 24.686774,52.6816927 24.7737893,52.9713764 C24.6856725,53.2632631 24.6581361,53.3502784 24.6856725,53.4372937 L24.7737893,53.8723701 C25.3542583,53.8139927 25.0932124,54.2501706 25.3245189,54.481477 C25.1504883,54.7149864 25.2088657,54.8009002 25.2088657,54.9187563 C25.2088657,55.1798022 25.1813292,55.4122101 25.1515898,55.6732559 C25.1515898,56.3407402 25.1229518,57.0082245 25.1229518,57.6470708 C25.1229518,57.7351875 25.1515898,57.8199999 25.1515898,57.9070152 C25.1515898,57.966494 25.1229518,58.722095 25.1229518,58.722095 C25.1813292,58.8080088 25.1229518,58.8950241 25.0348351,58.9820394 C25.0072986,58.9820394 24.9202834,55.2954554 24.9202834,55.2954554 L24.485207,55.2954554 C24.4279311,57.0357609 24.5733237,58.6031374 24.2539005,60.2299927 C23.9058394,60.2575291 23.7912877,60.3159065 23.4123857,60.3159065 C22.513595,60.3159065 21.6148043,60.3159065 20.7160135,60.3445444 C19.6431923,60.3445444 18.6012118,60.3731823 17.5272891,60.3731823 C17.0074004,60.3731823 16.4566708,60.4326611 15.9345791,60.4326611 C15.2384569,60.4326611 14.5136967,60.3445444 13.8197774,60.3445444 C12.7458547,60.3445444 11.7027728,60.4326611 10.6299515,60.4612991 C9.84791549,60.489937 9.06587945,60.489937 8.28384341,60.5196764 C7.76065028,60.5472129 7.23745716,60.5747494 6.71756841,60.6342282 C6.48626197,60.6628661 6.28249202,60.7498814 5.99280825,60.8368967 C5.90469151,60.8368967 5.70312447,60.8082587 5.53019538,60.8368967 C5.23830868,60.895274 4.97946577,61.0682031 4.68757908,61.1276819 C4.25250269,61.2157986 4.13684947,61.3303504 4.19412535,61.7665283 L4.19412535,62.056212 C4.16548741,62.1134879 4.83297169,61.9680953 4.83297169,61.9680953 C4.7734929,61.9680953 4.74485496,62.1421258 4.65673822,62.2875185 C4.89024757,62.1994017 5.03453873,62.1421258 5.17993135,62.08485 C5.61500774,62.2886199 5.99170679,62.1729667 6.33866644,62.2610834 C7.46876359,62.5496658 8.62749868,62.6686233 9.78623377,62.7820736 C10.5407333,62.840451 11.2654935,62.8701904 12.0188916,62.8977269 C13.0906114,62.9561042 14.1634327,63.0144815 15.2351525,63.0144815 C16.1339432,63.0144815 17.004096,62.9263648 17.9006838,62.9263648 C19.1453327,62.9263648 20.3943874,62.9836407 21.6401378,63.0144815 C21.9011836,63.0144815 22.1908674,62.9836407 22.4805512,62.9836407 L24.5953529,62.9836407 C26.4810511,62.9263648 28.3645463,62.8955239 30.249143,62.840451 C31.3230658,62.8096101 32.424525,62.7523342 33.4962448,62.7225948 L36.8006224,62.6344781 C38.0761122,62.6058402 39.351602,62.6058402 40.5984538,62.5794052 C41.5545204,62.5794052 42.481949,62.5463614 43.4402185,62.5188249 C44.5108369,62.490187 45.6122961,62.4031717 46.6851174,62.3458958 C47.2655864,62.3161564 47.8460554,62.2577791 48.4254229,62.2005032 C49.1215452,62.1432273 49.8463053,62.0573135 50.5402246,62.0275741 C51.584408,61.9680953 52.6572292,61.9394573 53.7014126,61.88108 C55.0055403,61.7951662 56.309668,61.679513 57.6424336,61.6497736 C58.8606475,61.5924977 60.1063979,61.6211356 61.3246118,61.5924977 C62.3974331,61.5627583 63.4702543,61.504381 64.5717135,61.475743 L66.4001358,61.3876263 C66.4001358,61.3876263 67.6161468,61.3589883 68.2252537,61.2995095 C69.2683356,61.2422337 70.3114175,61.1265805 71.3556008,61.0979425 C72.0208822,61.0682031 72.6883665,61.0979425 73.3547493,61.0682031 C74.4264691,61.0395652 75.5279283,60.9800864 76.6007496,60.9800864 C77.0049851,60.9800864 77.4400615,61.0395652 77.9621532,61.0682031 C77.7308467,61.2719731 77.5854541,61.3876263 77.4114236,61.5330189 C77.5270768,61.5616568 77.64273,61.6211356 77.7594847,61.6784115 C77.5854541,61.7940647 77.4400615,61.8216012 77.2968718,61.8216012 C77.237393,61.9680953 77.1790157,62.0264726 77.1206383,62.3172579 L77.64273,62.3172579 C77.4400615,62.3172579 77.266031,62.5783037 77.0633625,62.7523342 C76.832056,62.6928555 76.6282861,62.7523342 76.5126329,63.0717574 C76.7153014,63.1863092 76.6866634,63.2733245 76.6580255,63.3911806 C76.3099644,63.5057323 76.0489185,63.622487 76.1954126,63.9991861 C76.0775565,64.056462 75.9332653,64.1148393 75.7878727,64.2018546 C75.644683,64.433161 75.3825357,64.4915383 75.4398116,64.8109615 C75.5565663,64.838498 75.671118,64.8990783 75.7592348,64.9255133 C75.6138421,64.9838906 75.469551,65.0709059 75.3241584,65.1281818 C74.8031682,65.4476049 75.0355761,65.5929976 75.1512293,65.7383902 C75.0631125,65.7967675 74.9771987,65.8540434 74.8901834,65.8837828 C74.9474593,66.1448286 75.0333731,66.203206 75.0631125,66.203206 C74.9474593,66.2891198 74.8020667,66.4058745 74.6280361,66.5512671 C74.5399194,66.8123129 74.4242662,66.9279661 74.308613,67.1019967 C74.1929598,67.2760272 74.1345824,67.5095366 73.9891898,67.6824657 C73.3811843,68.3510514 72.9461079,69.1363918 72.1640719,69.657382 C71.8732867,69.861152 71.6133423,70.1221978 71.3522964,70.3843451 C70.8302048,70.8766974 70.3664905,71.4285285 69.8157608,71.8933443 C69.0921021,72.5024512 68.3398055,73.0531808 67.5555665,73.6050119 C66.6006014,74.2724961 65.6445348,74.9399804 64.6873668,75.5788268 C64.1652751,75.9257864 63.5859075,76.1868323 63.0351779,76.5062554 C62.4844483,76.8256786 61.9623567,77.1164638 61.4116271,77.4347855 C61.0635659,77.666092 60.7441428,77.9855152 60.3674437,78.1617486 C59.4113771,78.5692885 58.3958317,78.9162482 57.4111272,79.2940487 C56.4528577,79.7015886 55.7589384,80.0485483 55.0341782,80.3095941 C54.3677954,80.5409005 53.6716732,80.717134 52.9766524,80.8603237 C52.745346,80.9198025 52.4831987,80.8603237 52.2221528,80.8900631 C51.7286991,80.9781798 51.2363469,81.0949345 50.7428931,81.1522104 C49.4674034,81.3262409 48.1919136,81.4429956 46.9175253,81.6170262 C46.1630257,81.7051429 45.4382656,81.8483326 44.6848675,81.9364493 C44.1638773,81.9650873 43.6131476,81.9078114 43.091056,81.9078114 C42.7143569,81.9078114 42.3090199,81.9959281 41.9312194,81.9375508 C41.3232139,81.8494341 40.714107,81.7062444 40.1050001,81.5894897 C39.9618104,81.5608518 39.7569389,81.501373 39.6423872,81.5608518 C39.4110807,81.6776064 39.2062093,81.5035759 38.9738014,81.5608518 C38.8306117,81.5905912 38.6852191,81.472735 38.5398265,81.472735 C38.4230718,81.4451985 38.2776792,81.5035759 38.1322866,81.472735 C37.8128634,81.3868212 37.5242811,81.271168 37.1740171,81.2998059 C36.8292604,81.3284439 36.4800978,81.1544133 36.1056017,81.0684995 C35.5824085,80.9517448 35.0922592,80.8371931 34.5679646,80.7193369 C34.3663976,80.6609596 34.1934685,80.5739443 33.9896985,80.4582911 C33.2351989,80.4582911 32.7417452,80.4296531 32.2780309,80.2545211 C31.8726939,80.1113314 31.4959948,79.9075615 31.0609185,79.9659388 C30.9463667,79.9945768 30.8593514,79.9373009 30.7414953,79.9373009 C30.6533786,79.8205462 30.5685662,79.5881383 30.4826524,79.5881383 C29.9032848,79.6178777 29.5552237,79.1255254 29.06177,78.9790314 C28.8018256,78.8909146 28.5991571,78.6012309 28.3381113,78.5142156 C27.6992649,78.2531697 27.1793762,77.7024401 26.454616,77.6154249 C26.2233096,77.5856855 25.9920032,77.4700322 25.7298559,77.3841184 C25.8179726,77.4986702 25.8730456,77.5856855 25.9611623,77.6727007 C25.1207489,77.2651608 24.3387129,76.802548 23.5555754,76.3663701 C23.4410236,76.3377322 23.3540084,76.2231804 23.2669931,76.1637016 L22.484957,75.64161 C22.0498806,75.7297267 21.8758501,75.5534932 21.757994,75.4962173 C20.9759579,74.9454877 20.0782687,74.5963252 19.3237691,73.9872182 C19.0043459,73.7250709 18.6298498,73.5510404 18.3985434,73.2316172 C17.9910034,72.7381635 17.4986512,72.3901024 16.9479216,72.1004186 C16.5139466,71.8691121 16.1086097,71.6069649 15.7032727,71.345919 C15.4995027,71.2005264 15.2957328,71.0264959 15.2957328,70.7070727 C15.2957328,70.5033027 15.2098189,70.2995328 14.9487731,70.4162874 C14.8331199,70.2422569 14.7174667,70.0395884 14.5720741,69.9812111 C14.2240129,69.8380214 13.9927065,69.5736711 13.7316607,69.3423647 C13.4706148,69.1110583 13.2690478,68.7916351 12.9496246,68.6759819 C12.3691556,68.4446755 12.0210945,67.9512217 11.6741349,67.5447833 C10.861258,66.5865138 10.1364978,65.5401275 9.3830997,64.526785 C9.32472236,64.4386683 9.20906915,64.380291 9.12205387,64.2932757 C9.23770709,64.6126989 9.3830997,64.8737447 9.52739086,65.1634285 C9.23880854,65.0477752 9.03614005,64.8440053 8.86210949,64.6413368 C8.83237009,64.6710762 10.861258,68.0084976 10.861258,68.0084976 C11.0374914,68.2695434 11.1806811,68.5316907 11.3547117,68.7927366 C10.9196353,68.8213745 10.6299515,68.5889666 10.4845589,68.3279208 C10.2246145,67.8653079 9.93382931,67.5745227 9.35446176,67.6340015 C9.29718588,67.4291301 9.23880854,67.1967222 9.21127206,66.9951551 C9.09341593,66.9951551 9.00750211,66.9951551 8.80373216,66.9654157 C9.21127206,67.6042621 9.55823172,68.1549917 9.93493077,68.793838 C9.78843669,68.7057213 9.70362433,68.6484454 9.64304408,68.6198075 C10.1640343,69.1705371 10.5407333,69.8677608 11.2071162,70.2169233 C11.3525088,70.8833062 12.1059069,71.2027293 12.2799374,71.8415757 C12.1367477,71.8118363 12.0177901,71.7831983 11.8723975,71.7534589 C11.6410911,71.4637752 11.3800453,71.1740914 11.1201009,70.8546682 C11.1773768,71.0573367 11.2632906,71.2313673 11.3800453,71.3767599 C11.7281064,71.8118363 12.0475295,72.2469127 12.4528665,72.6247132 C12.5982591,72.7723087 12.8009276,72.830686 12.8009276,73.0917319 C13.0322341,73.2073851 13.1203508,73.2349216 13.2062646,73.2349216 C13.2657434,73.411155 13.1787281,73.6722009 13.5256878,73.6138235 C13.7569942,74.0488999 13.9883007,74.0488999 14.3077238,73.9046088 C14.6855243,74.2824093 14.8892943,74.3121487 15.1492387,74.0808422 C15.1492387,74.2240319 15.1778766,74.3694246 15.1778766,74.4861792 C15.2935298,74.4278019 15.2659934,74.3407866 15.2659934,74.195394 C15.4091831,74.3110472 15.4972998,74.3694246 15.5545757,74.4267004 C15.8442594,74.8342403 16.1053053,75.2109394 16.5106423,75.5303626 C17.0613719,75.9951784 17.5548256,76.4886321 18.0747143,76.9237085 C19.0902597,77.7663248 20.2225598,78.4635485 21.3515555,79.1012933 C22.7437999,79.8855323 24.0776671,80.7270471 25.497448,81.4804452 C27.2069127,82.3814389 29.033132,82.9916473 30.9166273,83.4267237 C31.6127495,83.5721163 32.2791323,83.7164074 32.976356,83.8893365 C33.5821586,84.06557 34.192367,84.3266158 34.8014739,84.470907 C35.7289026,84.674677 36.6849692,84.8487075 37.6123979,85.0216366 C37.8139649,85.051376 38.0199378,85.0811154 38.2512442,85.1097533 C38.5100871,85.1681307 38.8284088,85.051376 38.8867862,85.1394927 C39.0321788,85.3707992 39.147832,85.2540445 39.3218626,85.2254066 C39.524531,85.1670292 39.7569389,85.1670292 39.9882454,85.1670292 C40.8000208,85.1956672 41.5820569,85.3696977 42.3938323,85.3124218 C42.5700658,85.3124218 42.8300101,85.1659278 42.9754028,85.4556115 C43.2353471,85.3399583 43.3807398,85.3399583 43.496393,85.3124218 C43.5272338,85.5723662 43.496393,85.5723662 43.44132,85.6010041 C43.3818412,85.6296421 43.2948259,85.6593815 43.1791727,85.7463968 C44.2222546,85.9490653 45.2080606,85.9777032 46.0760104,85.7463968 C47.5850096,85.86205 48.8891373,85.6880194 50.1359891,85.252943 C50.2516423,85.3983357 50.3386576,85.6010041 50.5126882,85.3113204 C50.569964,85.2232036 50.7153566,85.1934642 50.8321113,85.1648263 C51.0920557,85.106449 51.4114789,84.9907957 51.6427853,85.0767096 C51.9049326,85.1648263 51.9919479,84.9335199 52.1935149,84.9335199 C52.5426775,84.9335199 52.8609992,84.9037805 53.1804224,84.8454031 C53.3544529,84.8167652 53.5284835,84.7297499 53.731152,84.6713726 C53.4998455,84.5535164 53.2685391,84.5248785 53.0923056,84.5248785 C53.4414682,84.3508479 53.7597899,84.2054553 54.0792131,84.0622656 C54.0208357,84.1481794 53.9624584,84.2638327 53.8479066,84.2638327 L54.2521422,84.2638327 C54.1640254,84.2638327 54.0483722,84.5248785 53.9040811,84.6989091 C54.9460615,84.4378632 55.9021281,84.2054553 56.8306582,83.971946 C56.511235,83.3639405 57.1776178,83.5677104 57.4100257,83.2185479 C57.120342,83.3066646 56.8306582,83.3925784 56.539873,83.4498543 C57.525679,82.957502 58.5401229,82.5224257 59.5248274,82.0873493 C59.3816377,82.2613798 59.2054043,82.3483951 58.9465613,82.4948892 C59.1205919,82.5224257 59.2362451,82.5224257 59.3232604,82.5499621 C59.7858733,82.6964562 59.6713215,82.2613798 59.8156127,81.9992325 C60.3663423,81.9992325 60.5976487,81.9133187 60.8586945,81.825202 C61.1483783,81.7370852 61.4380621,81.6511714 61.7288473,81.5355182 C62.1914602,81.3328497 62.6265366,81.0729053 63.0902509,80.8415989 C63.1783676,80.810758 63.3215573,80.8415989 63.438312,80.8415989 C63.7577352,80.6367275 63.8722869,80.4626969 63.9593022,80.4913349 C64.3668421,80.5497122 64.6532215,80.4032181 64.7699762,80.028722 C64.9726447,79.8822279 65.1180373,79.7665747 65.2623285,79.678458 C65.8989719,79.3303969 66.5069774,78.9823357 67.1458237,78.6342746 C67.3771302,78.6342746 67.4938848,78.6342746 67.5511607,78.6045352 C67.9300627,78.4283018 68.2781238,78.2278362 68.6250834,78.0240662 C68.5369667,77.9954283 68.3353997,77.8808765 68.3353997,77.8808765 C68.623982,77.8213977 68.7098958,77.7927598 68.8861293,77.7343825 C69.5800486,76.9193026 70.5383181,76.368573 71.2619768,75.7297267 C71.5814,75.7010887 71.5814,75.6140735 71.5814,75.5567976 C71.6959517,75.411405 71.8127064,75.2373744 71.9558961,75.1206197 C72.5947424,74.5401507 73.2886617,74.046697 73.8691307,73.4375901 C74.7095441,72.5938723 75.5213196,71.7226181 76.2747177,70.8227259 C76.968637,70.009849 77.6669621,69.1980736 78.2463297,68.2981814 C79.0581051,67.0502281 79.7531259,65.7725354 80.477886,64.4651033 C80.9999777,63.5376747 81.463692,62.6091445 81.9868851,61.6806144 C82.0419581,61.5924977 82.1598142,61.4768445 82.2468295,61.4768445 C83.0288656,61.3887277 83.8131045,61.3336548 84.5665026,61.245538 C84.7405332,61.2169001 84.9432017,61.1023483 85.1172322,61.0142316 C85.0291155,60.868839 84.9718396,60.6948084 84.8859258,60.5494158 C84.7691711,60.3731823 84.5951406,60.2299927 84.4783859,60.0537592 C84.3638341,59.9105695 84.2768188,59.734336 84.1898036,59.5614069 C84.1016868,59.4182172 84.015773,59.3014625 83.9287577,59.153867 C83.7525243,58.8344438 83.5795952,58.5150207 83.4331011,58.1691625 C83.4044632,58.0810457 83.3449844,57.937856 83.3758252,57.8497393 C83.8979169,56.7185407 84.1005854,55.4992253 84.5929376,54.3669253 C85.0852899,53.2059873 85.231784,51.8996566 85.4630904,50.6517033 C85.6657589,49.4621274 85.7825136,48.2725514 85.9257033,47.0829755 C86.01382,46.2414607 86.1294732,45.4285838 86.1570097,44.5870689 C86.3332432,43.2521004 86.2737644,42.0030456 86.2451265,40.7539909 C86.2164885,39.6525316 86.1570097,38.5202316 86.1019368,37.4165694 L86.0986324,37.4132651 Z M13.3747879,73.142399 C13.1721194,72.9110926 12.9980888,72.6489453 12.7954203,72.4176388 L12.8835371,72.3295221 C13.1996559,72.6786847 13.519079,73.0267458 13.8374008,73.4045463 C13.6633702,73.3164296 13.4607017,73.2591537 13.3747879,73.142399 Z M13.8374008,73.4045463 C13.9255175,73.3748069 14.0136342,73.3748069 14.099548,73.346169 C14.1876648,73.4915616 14.2449407,73.6655921 14.3308545,73.8396227 C13.9255175,73.8098833 13.722849,73.6358527 13.8385022,73.4045463 L13.8374008,73.4045463 Z M43.9843394,85.3917269 L43.9843394,85.3036102 C44.535069,85.2463343 45.0560592,85.1879569 45.6067888,85.1306811 L45.6067888,85.2154934 C45.0560592,85.3036102 44.535069,85.3586831 43.9843394,85.389524 L43.9843394,85.3917269 Z M51.287014,84.6372273 C50.8827784,84.7253441 50.4477021,84.7837214 50.0423651,84.8420988 C49.8969725,84.8707367 49.7229419,85.0161293 49.665666,84.753982 C49.6072887,84.7837214 49.5489113,84.7837214 49.4916355,84.8134608 C49.6348252,85.2474357 49.9839877,84.8993746 50.2736715,85.0734052 C49.6348252,85.1615219 49.0290226,85.2187978 48.4188142,85.3047116 L48.4188142,85.2474357 C48.5950477,85.2187978 48.7966147,85.1890584 48.9695438,85.159319 L48.9695438,85.0734052 C48.6809615,85.0436658 48.3912777,85.0150278 48.099391,85.0150278 C48.0145787,85.0150278 47.897824,85.1317825 47.8108087,85.1604205 C47.6951555,85.1890584 47.5795023,85.2187978 47.4341097,85.2187978 C46.9417574,85.2474357 46.4494051,85.2474357 45.9845893,85.2760737 C45.9548499,85.2760737 45.8964726,85.2474357 45.8678347,85.2474357 L45.8678347,85.159319 C47.8097072,84.8993746 49.7229419,84.6383288 51.6648145,84.377283 C51.6945539,84.4345588 51.6945539,84.4929362 51.7231918,84.5502121 C51.5491613,84.5502121 51.4335081,84.6107923 51.2881154,84.6383288 L51.287014,84.6372273 Z M51.7231918,84.348645 C52.3906761,84.2605283 53.0008845,84.2032524 53.6375279,84.1173386 C52.3047623,84.4940376 51.8696859,84.5513135 51.7242933,84.348645 L51.7231918,84.348645 Z M26.4766452,25.7455076 C27.401871,24.4678149 28.3601405,23.1901223 29.2875691,21.8848931 C29.5772529,21.5048897 29.8085593,21.0984512 30.0982431,20.7217522 C30.1863598,20.6049975 30.3020131,20.5477216 30.4463042,20.4309669 L30.4176663,20.375894 C30.5333195,20.2293999 30.6489727,20.1115438 30.7073501,19.996992 C30.8549456,19.7656856 30.9419609,19.5035383 31.0576141,19.2424924 C31.086252,19.1874195 31.1732673,19.1290421 31.1732673,19.1290421 C31.5808072,19.3317106 31.5808072,18.8977357 31.7239969,18.7512416 C31.9850427,18.4604564 32.2460886,18.1421347 32.477395,17.8513495 C32.6514256,17.620043 32.8254561,17.4162731 32.9708487,17.1552272 C32.9994867,17.0671105 32.9124714,16.9239208 32.882732,16.8060647 L32.7968182,16.8060647 C32.8849349,16.7487888 32.9708487,16.662875 33.057864,16.6033962 C33.086502,16.6033962 33.086502,16.6033962 33.1151399,16.5747582 C33.2891704,16.3126109 33.463201,16.0515651 33.6372316,15.8191572 C33.9841912,15.3565443 34.3608903,14.8917286 34.7662273,14.4863916 C34.7089514,14.6295813 34.650574,14.7760753 34.5921967,14.8917286 C34.6219361,14.8917286 34.6219361,14.921468 34.650574,14.921468 C34.9986351,14.4566522 35.3753342,14.0215758 35.7233953,13.5556585 C35.6936559,13.528122 35.665018,13.4983826 35.6352786,13.4983826 C35.4920889,13.6437753 35.3753342,13.7891679 35.2299416,13.9345605 C35.2013036,13.9048211 35.1726657,13.8761832 35.1418248,13.8761832 C35.4337115,13.4983826 35.7233953,13.1216836 36.0119776,12.6866072 C36.070355,12.7747239 36.1287323,12.8892757 36.2432841,13.1216836 C36.3611402,12.8319998 36.4767934,12.6293313 36.5627072,12.4255614 C36.4767934,12.5136781 36.3611402,12.5995919 36.2741249,12.6877087 L36.1860082,12.5995919 L36.7080998,11.8175559 C37.2588294,11.0333169 37.8095591,10.22044 38.3602887,9.43620107 C38.5640586,9.1465173 38.8229015,8.91410941 38.999135,8.62332417 C39.5498646,7.52186496 40.4200174,6.64950927 41.0852988,5.63396387 C41.2306914,5.43129538 41.4333599,5.25726482 41.6073904,5.08323427 C41.7505801,4.90700079 41.8684363,4.96647959 41.9840895,5.1118722 C42.7661255,6.09877966 43.5481616,7.11432505 44.3301976,8.10123251 C44.9117681,8.82819559 45.4911356,9.52211489 46.0418652,10.2777159 C46.708248,11.2073475 47.3459929,12.1358776 48.0134772,13.0644077 C48.7668753,14.1383305 49.5202734,15.2122532 50.2450336,16.3137124 C51.3464928,17.9405677 52.3895746,19.5663214 53.4910339,21.1909738 C54.3028093,22.3805497 55.1145847,23.5425892 55.8966208,24.7321652 L54.4162596,24.7321652 C53.054856,24.7046287 51.6626116,24.5889755 50.301208,24.6462513 C48.4463507,24.7343681 46.5628554,24.9370366 44.7079981,25.0824292 C42.3596871,25.2861991 39.9827381,25.3137356 37.63663,25.3137356 C36.7940137,25.3137356 35.9536003,25.4315918 35.1142884,25.4899691 C34.098743,25.547245 33.112937,25.6056223 32.098493,25.6331588 C30.9089171,25.6926376 29.7523849,25.7212755 28.562809,25.7510149 C27.8953247,25.7796529 27.2003039,25.7510149 26.4755438,25.7510149 L26.4766452,25.7455076 Z M59.7219886,39.0951933 L59.7219886,39.3573406 C59.6933507,39.3573406 59.6647127,39.38708 59.6063354,39.38708 C59.4906822,38.9795401 59.375029,38.5433622 59.2296364,38.1369238 C58.9399526,37.2943075 58.6205294,36.4516912 58.0984377,35.6982931 C57.5168673,34.8865176 56.9969785,34.0461043 56.4154081,33.203488 C56.2722184,32.999718 56.067347,32.8256874 55.8933164,32.6527584 C55.2842095,31.9841726 54.6751025,31.2869489 53.8930665,30.7945967 C52.7332299,30.0676336 51.5447554,29.4585266 50.2692657,28.9353335 C49.9212046,28.7921438 49.6028828,28.6159103 49.2559232,28.4132418 L49.9498425,28.4132418 L54.9064089,28.3251251 C55.9792302,28.2975886 57.0234136,28.2975886 58.0951334,28.2392113 C58.3550777,28.2392113 58.5004704,28.327328 58.645863,28.5586345 C58.9058073,28.9937108 59.1668532,29.4287872 59.456537,29.8649651 C59.4862764,29.922241 59.5446537,30.0081548 59.5446537,30.0962715 C59.5446537,30.7351179 59.5446537,31.4026021 59.5732916,32.0414485 C59.6008281,32.7089328 59.6614084,33.3477791 59.6878434,34.0152634 C59.6878434,34.6827477 59.6294661,35.3788699 59.6592055,36.0749921 C59.6889448,37.063001 59.7175828,38.0796479 59.7175828,39.0929904 L59.7219886,39.0951933 Z M28.5330696,29.3759172 C29.8955746,29.3175399 31.1986009,29.2305246 32.5335694,29.1721472 C33.5744484,29.1137699 34.6483711,29.0840305 35.6903515,29.0267546 C36.1254279,28.9992181 36.5318664,28.9716817 36.9658413,29.0267546 C36.5032284,29.260264 36.0384126,29.4926719 35.6330757,29.7823556 C35.110984,30.1304168 34.6197332,30.5941311 34.09654,30.9719316 C33.5733469,31.3486306 33.1096326,31.8134464 32.6756577,32.3069002 C32.1249281,32.973283 31.5158211,33.553752 30.9353521,34.1925983 C30.5278122,34.6574141 30.0651993,35.0924905 29.7182397,35.5859442 C29.2258874,36.2247906 28.790811,36.9187099 28.3270967,37.645673 C28.4724893,34.8876191 28.6465199,32.1604061 28.5297652,29.3737143 L28.5330696,29.3759172 Z M47.4616461,57.2979082 C46.533116,57.5292147 45.5781509,57.791362 44.6198814,57.9070152 C43.8092074,58.0237698 42.9676925,57.9951319 42.1272792,57.9951319 C41.3716781,57.9951319 40.646918,57.966494 39.8935199,57.9070152 C39.0531065,57.8211014 38.2126931,57.7340861 37.4009177,57.3562856 C36.703694,57.0368624 35.9800353,56.7471786 35.286116,56.3980161 C34.5877909,56.0499549 33.8927701,55.644618 33.369577,55.0057716 C32.9950808,54.5398544 32.4718877,54.1631553 32.0081734,53.7567169 C32.0962901,54.104778 32.2978572,54.3955632 32.6172803,54.5982317 C32.4718877,54.7722623 32.2692192,54.6863484 31.978434,54.2204312 C31.8925202,54.2788085 31.8055049,54.3085479 31.7471275,54.3371859 C31.8352443,54.1334159 31.9211581,53.929646 32.0081734,53.7567169 C31.8925202,53.5254104 31.7471275,53.2632631 31.6314743,53.0297538 C31.4001679,52.6530547 31.1688615,52.2477177 30.9650915,51.8699172 C30.9067142,51.7818005 30.9067142,51.6958867 30.8494383,51.6088714 C30.7040457,51.4348408 30.5586531,51.2597088 30.4418984,51.0856783 C30.2105919,50.7387186 30.0079235,50.3620196 29.7182397,50.012857 C29.7182397,50.1009737 29.7479791,50.1868876 29.7479791,50.3036422 C29.7182397,50.3036422 29.6896017,50.3322802 29.6896017,50.3322802 L29.0793933,48.851919 C29.0507554,48.851919 29.0507554,48.851919 29.0221175,48.8805569 L29.5431077,50.797096 C29.5144697,50.797096 29.4858318,50.8246324 29.4549909,50.8246324 C29.3701786,50.7100807 29.2831633,50.593326 29.2236845,50.4501363 C29.1664086,50.216627 28.9923781,50.216627 28.8491884,50.3036422 C28.7610716,50.3620196 28.7026943,50.5646881 28.7324337,50.6517033 C28.9362036,51.1451571 29.1675101,51.6386108 29.399918,52.1320645 C29.4571938,52.3060951 29.5155712,52.4514877 29.6025865,52.6255182 C29.6323259,52.6838956 29.7193411,52.7411715 29.7193411,52.8281867 C29.8360958,53.0594932 29.9231111,53.2907996 30.0674023,53.495671 C30.3284481,53.8437321 30.6181319,54.1917932 30.8791777,54.5398544 C31.1380206,54.8879155 31.369327,55.2668174 31.6017349,55.6137771 C31.6303729,55.6721544 31.7173882,55.6721544 31.7449246,55.7018938 C31.8914187,56.1369702 32.383771,56.4552919 32.7318321,56.2812614 C32.8199488,56.9487457 33.5436075,57.1811536 33.8332913,57.8199999 C33.4852302,57.6746073 33.2252858,57.5589541 32.9928779,57.4421994 C32.9631385,57.4708373 32.9631385,57.4994753 32.9333991,57.5578526 C33.2814602,57.7318832 33.6295213,57.9059137 33.9467416,58.1085822 C34.2386283,58.2848157 34.5283121,58.4577448 34.7893579,58.6593118 C35.137419,58.978735 35.5438575,59.1549685 36.0340068,59.2695202 C36.0075718,59.1814035 35.9789338,59.1516641 35.9789338,59.1516641 C36.7896078,59.5294646 37.6311227,59.935903 38.2677661,60.2531233 C35.2530722,60.3126021 32.0357099,60.3709794 28.7015928,60.4293568 C28.7015928,59.8786272 28.6729549,59.355434 28.6729549,58.803603 C28.6729549,58.5722965 28.7302308,58.3685266 28.7004914,58.1361187 C28.6123746,56.803353 28.6123746,55.4661816 28.4394455,54.1598509 C28.2665164,52.7676065 28.2665164,51.4028985 28.2962558,50.0073497 C28.3237923,49.2550531 28.2665164,48.4719156 28.236777,47.7163145 C28.236777,46.7007691 28.236777,45.7116588 28.2676179,44.6983163 C28.2676179,44.5529237 28.3259952,44.4372705 28.3843726,44.2907764 L28.4724893,44.2907764 C28.5000258,44.3502552 28.4724893,44.4372705 28.5275623,44.4670099 C28.615679,44.5551266 28.7610716,44.6983163 28.819449,44.6696784 C28.9923781,44.5529237 29.2534239,44.4383719 29.3118012,44.2621384 C29.4549909,43.9151788 29.5144697,43.5373783 29.5144697,43.1893172 C29.5144697,42.9293728 29.6312244,42.7553422 29.7457762,42.5802102 C29.805255,42.4920935 29.8338929,42.4061797 29.8922702,42.2905265 C29.776617,42.2024097 29.6609638,42.1451338 29.5155712,42.0294806 C29.6323259,41.7100575 29.6036879,41.3322569 30.0387643,41.1593278 C30.0960402,41.1295884 30.0960402,40.9830944 30.126881,40.8971806 C30.1544175,40.6625697 30.181954,40.4015239 30.2127949,40.1702175 C30.2700707,40.2583342 30.3009116,40.2858707 30.3559846,40.3431466 C30.3868254,40.2858707 30.4154634,40.2550298 30.4154634,40.2550298 C30.4154634,40.1404781 30.3868254,39.9080702 30.4154634,39.9080702 C30.7635245,39.8496928 30.6181319,39.4729938 30.7921624,39.2989632 C30.8196989,39.2681224 30.762423,39.1811071 30.762423,39.1227298 C30.762423,39.0654539 30.762423,38.9795401 30.791061,38.9795401 C31.1952965,38.8914233 31.1380206,38.4563469 31.3990664,38.252577 C31.4871832,38.1941996 31.5147197,38.1093873 31.6303729,37.9628932 C31.8616793,38.3682302 31.4563423,38.5720002 31.4277044,38.8616839 C31.9189552,38.5720002 32.0643478,37.8758779 31.774664,37.672108 C31.8903172,37.5839912 32.0059705,37.4694395 32.0940872,37.3526848 C32.4135104,37.0046237 32.7593686,36.6852005 33.0501538,36.3371394 C33.2539238,36.077195 33.369577,35.7577719 33.5722455,35.496726 C33.6890001,35.3513334 33.9203066,35.2356802 34.0943371,35.1475635 C34.6164288,34.8589812 35.1076796,34.539558 35.4271028,34.0461043 C35.4854801,33.9877269 35.5724954,33.930451 35.6584092,33.8720737 C35.7465259,33.8136964 35.9205565,33.8136964 35.9491944,33.7266811 C35.9789338,33.6694052 35.8919186,33.5240126 35.8335412,33.4369973 C35.948093,33.37862 36.0648477,33.2629668 36.2961541,33.1462121 C36.2080374,33.3202426 36.1805009,33.4369973 36.1221235,33.553752 L36.2653132,33.6969417 C36.5274605,33.4942732 36.9327975,33.2629668 37.1938434,33.0889362 C37.1938434,33.0613997 37.0484507,32.9457465 37.0484507,32.9457465 C36.8755216,33.0338632 36.6144758,33.1770529 36.3545314,33.2938076 C36.4096044,33.2056909 36.4096044,33.148415 36.4426482,33.1197771 C36.8468837,32.8587312 37.2522207,32.5976854 37.6872971,32.392814 C38.7006396,31.9302011 39.716185,31.4653853 40.7306289,31.0303089 C40.9046594,30.9421922 41.1381688,31.001671 41.3397358,31.001671 C41.4256496,31.001671 41.4829255,31.001671 41.5710423,30.9730331 C42.0336551,30.8276404 42.4984709,30.6822478 42.9621852,30.5654931 C43.1637523,30.5082173 43.3950587,30.4795793 43.6010316,30.4795793 C44.46788,30.5071158 45.3380328,30.5071158 46.2070841,30.5654931 C46.5837831,30.5941311 46.9318443,30.6811464 47.2799054,30.7967996 C47.7138803,30.9432937 48.1775946,31.1459621 48.5840331,31.3475292 C49.0763853,31.6118794 49.5400997,31.9004617 50.0049155,32.2198849 C50.8453288,32.7706145 51.6273649,33.3808229 52.4677783,33.8742766 C53.2795537,34.3677303 53.9172986,35.0352146 54.4393902,35.7908156 C55.0782366,36.6896064 55.8018953,37.5024833 56.0915791,38.6050439 L56.525554,40.521583 C56.6136707,40.8696441 56.8163392,41.2177052 56.7293239,41.6230422 C56.5828299,42.3500053 56.4671767,43.1045048 56.3515234,43.8303664 C56.2942476,44.1222531 56.2358702,44.4141398 56.2656096,44.7005192 C56.3206826,45.6037158 55.9737229,46.3857518 55.6267633,47.1986287 C55.5100086,47.4596745 55.335978,47.7218218 55.1916869,48.0115056 C55.2203248,48.0401435 55.3943554,48.1282603 55.4229933,48.1282603 L55.6840392,47.6061686 C55.7137786,47.6061686 55.7137786,47.6061686 55.7424165,47.635908 C55.5970239,48.041245 55.4813707,48.4774229 55.3348766,48.8838613 C54.9890184,49.7837535 54.6409573,50.7122836 54.2058809,51.5824364 C53.9745745,52.0758901 53.5670345,52.4823286 53.2784522,52.9482458 C52.9898699,53.3535828 52.757462,53.7886592 52.4677783,54.1664597 C52.2067324,54.4858829 51.946788,54.805306 51.5976255,55.0366125 C50.8155894,55.6170815 50.003814,56.1975505 49.1634006,56.6623663 C48.6424104,56.9817894 48.0333035,57.15582 47.4539359,57.3012126 L47.4616461,57.2979082 Z M32.0114778,55.7558653 L31.9828398,55.7856047 C31.9222596,55.7569668 31.8352443,55.7283289 31.7779684,55.6699515 L31.0818462,54.6235653 C31.0245703,54.5376514 30.9937294,54.4506362 31.0245703,54.3349829 C31.3439935,54.8284367 31.6634166,55.2932525 32.0103763,55.7558653 L32.0114778,55.7558653 Z M50.0423651,59.7321331 C51.3453913,59.1814035 52.4182126,58.3993674 53.4018157,57.4983738 C53.5483097,57.3529812 53.6926009,57.20869 53.8666315,57.0908339 C55.0848453,56.3374358 55.9814331,55.292151 56.79431,54.131213 C57.7217387,52.7962444 58.3308456,51.2872453 59.0853452,49.8652615 C59.1426211,49.7485068 59.199897,49.633955 59.2582743,49.5458383 C59.199897,52.8546218 59.5776975,56.1050279 60.0116724,59.3851734 C56.7370342,59.5008267 53.4029171,59.6164799 50.0412636,59.7332345 L50.0423651,59.7321331 Z M79.4326012,58.8619803 C79.4039633,58.9203576 79.3444845,58.978735 79.316948,59.0382138 C79.2872086,58.978735 79.2872086,58.8917197 79.2585707,58.7738636 C79.0845401,59.2397808 78.7078411,59.0073729 78.4467952,59.0073729 C76.8827232,59.0371123 75.2878102,59.0371123 73.7215352,59.0371123 C72.214739,59.0371123 70.6793049,59.0371123 69.1725087,59.0635473 C68.6790549,59.0635473 68.1569633,59.1792006 67.6635095,59.20894 C66.4761365,59.2662158 65.287662,59.2970567 64.0991875,59.3245932 C64.0110708,59.3245932 63.925157,59.1814035 63.7797644,59.0646488 C63.7511264,59.1230261 63.6916476,59.2100414 63.6057338,59.3256946 C63.574893,59.2684188 63.5176171,59.2111429 63.4592397,59.1241276 C63.4306018,59.2122443 63.4008624,59.2981582 63.371123,59.355434 L63.2874121,59.355434 C63.2290348,58.950097 63.1133815,58.573398 63.1133815,58.1658581 C63.1133815,57.2957053 63.2014983,56.4255525 63.2290348,55.5531968 C63.2587742,55.1478598 63.2290348,54.7711608 63.2290348,54.3922588 C63.3457894,54.4803756 63.4328047,54.5387529 63.5484579,54.6235653 C63.6057338,54.510115 63.6641111,54.4230997 63.7224885,54.3371859 C63.7224885,54.3371859 63.6641111,54.306345 63.6057338,54.2490691 C63.6608068,54.2193297 63.7202856,54.1609524 63.7202856,54.1323145 C63.7489235,54.0441977 63.8084023,53.9582839 63.8084023,53.901008 C63.8084023,53.6972381 63.7489235,53.5232075 63.7202856,53.3502784 C63.7489235,53.3502784 63.7775614,53.3502784 63.8084023,53.3194376 L63.9813314,54.1895903 L64.0694481,54.1895903 C63.9526935,53.9880233 64.3293925,53.8128913 64.0110708,53.5815848 C63.9824329,53.5518454 64.0397087,53.3778149 64.0397087,53.2907996 C63.951592,53.1178705 63.896519,52.94384 63.8084023,52.7114321 C63.8370402,52.6827941 63.9240555,52.6530547 64.0110708,52.6233153 C63.8954176,52.5660395 63.8084023,52.5087636 63.721387,52.4801256 C64.0110708,52.2179783 64.0110708,52.0725857 63.750025,51.782902 C63.8095038,51.7553655 63.8667796,51.7553655 63.8667796,51.727829 C63.8667796,51.4656817 63.8667796,51.2046359 63.8095038,50.945793 C63.7511264,50.6528048 63.8976205,50.3069466 63.4614427,50.1307131 C63.4900806,50.2188299 63.51982,50.2761057 63.5770959,50.3620196 C63.5770959,50.3620196 63.4889791,50.391759 63.4030653,50.4501363 C63.0263663,50.1009737 63.2598756,49.6350565 63.1717589,49.1140663 C63.3744274,49.1724436 63.51982,49.230821 63.6641111,49.2902998 C63.6057338,49.0854283 63.4614427,48.8530204 63.3744274,48.5919746 L63.2565712,48.5919746 L63.2565712,46.6754356 C63.2565712,46.705175 63.4592397,46.705175 63.5759944,46.7349144 C63.5759944,46.705175 63.6035309,46.676537 63.6035309,46.6467976 C63.5154142,46.5311444 63.3997609,46.4154912 63.2841077,46.2700986 L63.3424851,46.2117213 C63.1111786,45.9231389 63.2268318,45.517802 63.2268318,45.4296852 L63.2268318,43.397493 C63.5176171,43.6882782 63.0836421,44.0649773 63.5176171,44.2390078 L63.5176171,43.949324 L63.4878777,43.949324 C63.4592397,43.5142476 63.4592397,43.0791713 63.4306018,42.6429934 L63.3733259,42.6429934 C63.3435865,42.7024722 63.3435865,42.7311101 63.3138471,42.7894875 L63.2565712,42.7894875 L63.4306018,35.8524974 C63.7202856,36.2291964 64.0386073,36.5794604 64.2412758,36.9539566 C64.9087601,38.1743734 65.7778114,39.2196582 66.5895868,40.3222188 C67.285709,41.2804884 67.9223525,42.3246717 68.5611988,43.3115791 C69.3432348,44.5011551 70.0966329,45.690731 70.8797704,46.880307 C71.459138,47.7813006 72.0693464,48.6811928 72.675149,49.552447 C73.2258786,50.3344831 73.807449,51.0900841 74.3868166,51.8456851 C74.8780674,52.5131694 75.4001591,53.1806537 75.8925113,53.848138 C76.4729803,54.6610149 77.0523479,55.4727903 77.6328169,56.2570293 C77.9213992,56.6623663 78.2408224,57.0688047 78.5580426,57.4752432 C78.7342761,57.7065496 78.9942205,57.8827831 79.168251,58.0259728 C79.1407145,58.0259728 79.1109751,58.0259728 79.0536993,57.9973348 C79.141816,58.112988 79.196889,58.2000033 79.2563678,58.2583807 C79.5757909,58.4324112 79.6044289,58.6064418 79.4303983,58.8685891 L79.4326012,58.8619803 Z M80.9107595,51.6077699 L80.9107595,51.404 C80.9107595,51.4612759 80.9393974,51.5471897 80.9107595,51.6066685 L80.9107595,51.6077699 Z M81.8965655,38.8088139 C81.8668261,38.8088139 81.693897,38.6325804 81.6652591,38.6039425 C81.6355197,38.6920592 81.6652591,38.777973 81.6068817,38.8947277 C81.5771423,38.8088139 81.3755753,38.8374518 81.3755753,38.751538 C81.3458359,39.156875 81.5485044,39.5633134 81.518765,39.9697519 C81.6068817,39.9113746 81.9538414,39.8816352 82.0408566,39.7957213 C82.070596,39.8243593 82.1289734,39.8529972 82.1576113,39.8529972 C81.5771423,40.2891751 81.7225349,40.72315 81.9835808,41.2188066 C82.0408566,41.3333584 82.2148872,41.5657663 82.0408566,41.7981742 C81.9835808,41.8565515 82.070596,42.0294806 82.099234,42.1759747 L82.1840463,42.1759747 L82.1840463,42.2310477 L81.9230005,42.3191644 C81.8657246,42.2310477 81.518765,42.05922 81.518765,41.9116245 L81.518765,43.3941886 C81.8084488,43.4823053 81.8084488,43.8876423 81.924102,44.0914123 C81.9846822,44.0032955 82.0122187,43.9449182 82.0419581,43.8601058 L82.0716975,43.8865409 C82.0419581,44.0605714 82.0133202,44.234602 81.9549428,44.409734 C81.8976669,44.6696784 81.8392896,44.9020863 81.8117531,45.1631321 C81.8117531,45.19177 81.8668261,45.2512488 81.8668261,45.2787853 C81.5496058,46.0057484 81.7236364,46.8164224 81.6079832,47.5698205 C81.5198664,48.1205501 81.6079832,48.7043235 81.5496058,49.283691 C81.490127,49.7771447 81.3733724,50.2992364 81.2588206,50.7926901 C81.2290812,50.8808069 81.1707039,50.9083433 81.0275142,50.9667207 C81.08479,50.6186596 81.0561521,50.3862517 80.9977748,50.0668285 C80.9669339,50.0668285 80.5902349,49.86416 80.5604955,49.86416 C80.5604955,50.2716999 80.7918019,50.8224295 80.8799186,51.2850424 C80.7918019,51.2564044 80.4448422,51.053736 80.4173058,51.053736 C80.357827,51.4017971 80.357827,51.8666129 80.329189,52.2433119 C80.2994496,52.5340971 80.0395053,52.7940415 80.0097659,53.1134647 C80.0097659,53.2896982 80.2124344,53.4042499 80.1837964,53.6950351 L80.4151028,53.6950351 C80.4151028,53.1156676 80.6772501,52.5935759 80.6772501,51.9833675 L80.763164,51.9833675 C80.7929034,52.0417449 80.8799186,52.1001222 80.8512807,52.1287601 C80.7929034,52.4481833 80.6750472,52.7962444 80.7058881,53.1156676 C80.7058881,53.2896982 80.8490778,53.4637287 80.7940048,53.6663972 C80.734526,53.8426307 80.7058881,54.0155598 80.6761487,54.2766056 C80.6464093,54.131213 80.6177713,54.0739371 80.6177713,53.9869218 C80.5891334,53.9869218 80.3280876,53.9571824 80.2983482,53.9571824 C80.2697102,54.131213 80.5021181,54.3052435 80.4723787,54.4506362 C80.4437408,54.4792741 80.4151028,54.4792741 80.3567255,54.5090135 L79.4006589,53.1145661 C78.6450579,52.0131069 77.8916598,50.9083433 77.1382617,49.7771447 C76.9344917,49.4863595 76.7604612,49.1966757 76.6150686,48.9069919 C75.7173793,47.367152 74.7315733,45.8867908 73.6301141,44.4648069 C72.7908022,43.3919857 72.121115,42.2288447 71.3390789,41.0998491 C70.6165217,40.0259263 69.8917615,38.9806415 69.1670014,37.9056173 C68.9059555,37.5586577 68.5876338,37.2392345 68.3552259,36.861434 C67.6029293,35.6718581 66.9343435,34.4525427 66.1831484,33.2629668 C65.544302,32.2749578 64.8503827,31.3166883 64.1828984,30.3595203 C63.951592,30.0400971 63.7202856,29.6909345 63.4867762,29.3428734 C63.4581383,29.2878005 63.4295003,29.2294231 63.4295003,29.1424078 C63.371123,28.5035615 63.3127457,27.8647152 63.2841077,27.2556082 C63.2841077,26.6751392 63.3424851,26.0946702 63.3424851,25.4844618 L63.3424851,24.9623701 C63.3424851,24.8169775 63.3700215,24.7013243 63.3700215,24.5548302 C63.397558,24.5272937 63.4272974,24.4689164 63.4559354,24.4402785 C62.615522,24.4402785 61.7453692,24.4094376 60.9049558,24.4402785 C60.3542262,24.4678149 60.0645424,24.235407 59.6878434,23.8289686 C58.5863842,22.5810153 57.7746087,21.1590315 56.8185421,19.8240629 C55.9197514,18.5463702 54.9923228,17.2973155 54.0648941,16.0493622 C53.3103945,15.0338168 52.555895,14.0469093 51.8035983,13.0313639 C50.9620835,11.8704259 50.1514095,10.7094879 49.2812568,9.54854991 C48.2370734,8.15630547 47.1642521,6.7618581 46.0925323,5.36961366 C45.5968757,4.73076732 45.0461461,4.12166037 44.4954165,3.45307463 C44.873217,3.51255343 45.2223796,3.56982931 45.5693392,3.59956871 L46.9615836,3.68768544 C48.0046655,3.7724978 49.0477474,3.83087514 50.0897278,3.97406484 C50.9598806,4.09192097 51.8300334,4.26595153 52.7288241,4.41024269 C54.6431602,4.72966586 56.5266555,5.25285898 58.3528748,5.86196593 C59.4256961,6.21002704 60.4676765,6.67484283 61.5140628,7.10991922 C63.8601709,8.06818873 66.0928287,9.22912674 68.2957471,10.4473406 C68.9896664,10.8251411 69.3972063,11.4342481 69.9170951,11.9860791 C70.6715947,12.7703181 71.4260942,13.5534556 72.1497529,14.365231 C72.9890648,15.3235006 73.7711009,16.310408 74.5839778,17.2973155 C75.3076365,18.1674682 76.0599331,19.037621 76.7868962,19.9099767 C77.0182026,20.1710226 77.1944361,20.4904457 77.3949017,20.7801295 C77.8575146,21.4773532 78.3807077,22.1459389 78.7860447,22.899337 C79.074627,23.4522695 79.2486575,24.0911159 79.451326,24.7002228 C79.7399084,25.600115 80.0306936,26.4702678 80.3214788,27.37016 C80.5230459,28.0376443 80.6959749,28.7359694 80.8413676,29.4298887 C80.9581222,29.8958059 80.9294843,30.3881582 81.072674,30.8507711 C81.2489075,31.4631824 81.072674,32.1284638 81.2489075,32.7397736 C81.276444,32.798151 81.3039804,32.8851662 81.3348213,32.9435436 C81.4504745,33.0580953 81.5374898,33.17485 81.3634592,33.3488806 C81.3359227,33.3775185 81.3359227,33.4920703 81.3634592,33.580187 C81.422938,33.5229111 81.451576,33.4645338 81.5099533,33.3775185 C81.5099533,33.4358959 81.5374898,33.4656352 81.5374898,33.4931717 C81.5374898,33.6077235 81.5077504,33.7244782 81.5374898,33.8401314 C81.5374898,33.8974073 81.5947657,33.9833211 81.6234036,34.0427999 C81.6817809,33.9833211 81.7390568,33.9546831 81.85471,33.8665664 C82.1157559,34.8545753 82.1454953,35.8414828 82.1454953,36.8570282 C82.1454953,37.8152977 82.3184244,38.7735672 81.9141888,39.7020973 C82.0001027,39.3826741 81.7974342,39.0907874 81.8844494,38.8011037 L81.8965655,38.8088139 Z"/>
    <path fill="#DD3735" d="M67.9542948,78.77416 C67.6348716,79.0054664 67.3154484,79.2092363 66.9101114,79.2962516 C66.8792706,79.2676137 66.8792706,79.2378743 66.8506326,79.2081349 C67.1700558,79.0054664 67.5170155,78.8027979 67.8364386,78.5990279 C67.866178,78.6541009 67.9245554,78.7135797 67.9531933,78.771957 L67.9542948,78.77416 Z M13.6060943,39.4432544 C13.9255175,39.0390189 14.2449407,38.6325804 14.5907989,38.226142 C14.6183353,38.2547799 14.8496418,38.3142587 14.8793812,38.3417952 C14.559958,38.7493351 14.1248816,39.3000647 13.8065599,39.7351411 C13.7470811,39.6767637 13.6600658,39.4740953 13.6027899,39.4443559 L13.6060943,39.4432544 Z M5.37268671,53.6686001 C5.14138027,53.1751464 4.91007384,52.6519533 4.67876741,52.159601 C4.70740534,52.1298616 4.91007384,52.0428463 4.93871178,52.0428463 C5.25813495,52.5054592 5.40132465,53.0561888 5.634834,53.5518454 C5.634834,53.5518454 5.40352757,53.6674987 5.37378817,53.6674987 L5.37268671,53.6686001 Z M12.7656809,39.7351411 C12.5916504,39.9972884 12.4176198,40.2880736 12.2435893,40.5502209 C12.2149513,40.51938 11.8955282,40.6647727 11.8668902,40.6361347 C12.0409208,40.3750889 12.4748957,39.9091716 12.6489263,39.6492273 C12.6786657,39.6778652 12.7073036,39.7076046 12.7656809,39.737344 L12.7656809,39.7351411 Z M64.8536871,79.9659388 C64.8812236,79.9659388 64.8812236,79.9373009 64.910963,79.9373009 C65.1136315,79.9659388 65.3449379,79.9945768 65.5773458,79.9945768 C65.1984438,80.2556226 64.9660359,80.2258832 64.8503827,79.9659388 L64.8536871,79.9659388 Z M12.8207539,40.9544564 C12.8515948,40.8663397 12.9088706,40.7804259 12.967248,40.6934106 C13.0245239,40.6934106 13.1104377,40.6636712 13.1104377,40.6636712 C13.2282938,40.4610027 13.2282938,40.3156101 13.343947,40.1415795 C13.3153091,40.1129416 13.2855697,40.1129416 13.2558303,40.0832022 C13.0829012,40.2021598 12.9088706,40.3475524 12.7348401,40.4632056 C12.7932174,40.5204815 12.7932174,40.5513224 12.7932174,40.6085982 C12.561911,40.5788588 12.4737943,40.696715 12.358141,41.0139352 C12.3295031,41.102052 12.1841105,41.1306899 12.0387179,41.2452417 C12.0100799,41.3047205 11.981442,41.4501131 11.9230646,41.5944042 L11.952804,41.6252451 C11.8944267,41.6836224 11.8074114,41.7133618 11.8074114,41.7133618 C11.6333809,41.8862909 11.4307124,42.032785 11.2566818,42.2057141 C11.2280439,42.2938308 11.1994059,42.3797447 11.1994059,42.4667599 C11.4031759,42.2640914 11.7501355,41.8862909 12.0111814,41.653883 L12.0409208,41.6836224 C12.156574,41.5095919 12.2435893,41.3355613 12.360344,41.1615308 C12.3878804,41.1901687 12.3878804,41.2188066 12.4176198,41.2496475 C12.3295031,41.4809539 12.2435893,41.7408983 12.156574,41.9733062 C12.0959937,42.0019441 12.0089785,42.0614229 12.0089785,42.0316835 C11.8933252,42.1198003 11.80631,42.234352 11.6895553,42.3213673 L11.1685651,42.6694284 C10.8788813,42.9304743 10.5891975,43.1617807 10.2697744,43.423928 C10.0671059,43.7433512 9.86443738,44.0330349 9.63092802,44.4108354 C9.98009059,44.3227187 10.0671059,44.4692128 10.0384679,44.759998 C10.4438049,44.8172739 10.4735443,44.4989522 10.5891975,44.2665443 C10.6178355,44.2070655 10.6475749,44.0903108 10.7048508,44.0616729 C10.9658966,43.8303664 11.2555804,43.6276979 11.5452641,43.39529 C11.6036415,43.3369127 11.6036415,43.2190566 11.6036415,43.1331428 C11.6036415,43.1045048 11.4571474,43.1045048 11.3701321,43.0747654 C11.631178,42.7839802 12.0089785,42.2927294 12.2689228,41.9733062 C12.4143155,41.8851895 12.5586066,41.7684348 12.5586066,41.6814195 C12.5299687,41.3619963 12.7326372,41.2760825 12.9661465,41.1593278 C12.8493918,41.0712111 12.8196524,40.9863988 12.8196524,40.9577608 L12.8207539,40.9544564 Z"/>
    <path fill="#DD3735" d="M13.4023244,40.6350333 C13.2866711,40.8377018 13.1710179,41.0117323 13.0553647,41.2155023 L12.8813342,41.1273855 C12.7656809,41.7937684 12.3592425,42.3742374 11.9539055,42.4898906 C12.0695587,42.5482679 12.1852119,42.6066453 12.2733287,42.5780073 C12.3592425,42.5482679 12.4165184,42.4017738 12.4748957,42.31586 L13.2569318,41.18356 L13.519079,40.7473821 L13.4034258,40.6317289 L13.4023244,40.6350333 Z M3.75133875,53.3767134 C3.89673136,53.3767134 4.04212398,53.4053514 4.21395162,53.4053514 C4.21395162,53.2896982 4.36044569,53.3172346 4.36044569,53.2026829 L4.44856243,53.2026829 C4.44856243,53.3480755 4.47720037,53.4637287 4.47720037,53.6102228 L3.86919488,53.6102228 C3.83945549,53.5804834 3.72380227,53.4053514 3.75244021,53.3767134 L3.75133875,53.3767134 Z M3.52003231,52.0417449 C3.43191558,51.9536281 3.28872588,51.8677143 3.28872588,51.780699 C3.25898648,51.6661473 3.34600176,51.5218561 3.43191558,51.3764635 C3.49139437,51.579132 3.52003231,51.7531626 3.57730819,51.9569325 C3.54756879,51.984469 3.51893085,52.0142084 3.51893085,52.0428463 L3.52003231,52.0417449 Z M4.24479248,50.1835832 C4.36044569,50.4765713 4.47609891,50.7959945 4.59285359,51.0867797 C4.56421565,51.0867797 4.39018509,51.1748965 4.36154715,51.2024329 C4.24589393,50.9116477 4.10050132,50.5922245 3.9848481,50.3025408 C4.01348604,50.2739028 4.1875166,50.1857861 4.24589393,50.1857861 L4.24479248,50.1835832 Z M68.7682731,77.9337466 C68.9114628,77.8764707 69.0854934,77.8456298 69.3190027,77.7905569 C69.0568555,77.9921239 68.854187,78.1375165 68.6801564,78.3115471 C68.650417,78.2829091 68.6217791,78.2531697 68.5920397,78.2531697 C68.650417,78.1375165 68.7087943,78.0505012 68.7682731,77.9337466 Z M33.1404735,16.6033962 C33.3134025,16.4866415 33.4598966,16.3996262 33.6328257,16.283973 L33.6901016,16.3412489 C33.5138681,16.5725553 33.3706784,16.8038617 33.1669085,17.0957484 C33.1382705,16.8941814 33.1382705,16.7763253 33.1085311,16.6331356 C33.0798932,16.6331356 33.1085311,16.6331356 33.1382705,16.6044976 L33.1404735,16.6033962 Z M41.632724,31.2891518 C41.8937698,31.1723972 42.1548156,31.0578454 42.4731374,30.9113513 C42.4444994,31.0853819 42.4444994,31.2021366 42.4444994,31.3188912 C42.3563827,31.2891518 42.2407295,31.2594124 42.1537142,31.2594124 C41.9796836,31.2891518 41.6602605,31.5215597 41.5148678,31.5501977 C41.4873314,31.5501977 41.6316225,31.3188912 41.6316225,31.2891518 L41.632724,31.2891518 Z M63.3755288,55.9023594 C63.4328047,56.1920432 63.9835343,56.3374358 63.4328047,56.6271196 C63.5209214,56.6876998 63.6057338,56.7152363 63.6927491,56.7747151 C63.6927491,56.8044545 63.6641111,56.8628318 63.6354732,56.8914698 C63.5770959,56.9190063 63.4614427,56.9773836 63.4041668,56.9465427 C63.3744274,56.9465427 63.31605,56.831991 63.31605,56.7736136 C63.31605,56.5125678 63.3457894,56.251522 63.3744274,55.9034609 L63.3755288,55.9023594 Z"/>
  </g>
</svg>
